<?xml version="1.0" standalone="no"?>
<!DOCTYPE svg PUBLIC "-//W3C//DTD SVG 20010904//EN"
 "http://www.w3.org/TR/2001/REC-SVG-20010904/DTD/svg10.dtd">
<svg version="1.0" xmlns="http://www.w3.org/2000/svg"
 width="1170.000000pt" height="1436.000000pt" viewBox="0 0 1170.000000 1436.000000"
 preserveAspectRatio="xMidYMid meet">

<g transform="translate(0.000000,1436.000000) scale(0.100000,-0.100000)"
fill="#000000" stroke="none">
<path d="M8726 13145 c-15 -8 -38 -15 -50 -15 -24 0 -71 -42 -60 -53 4 -4 12
-3 18 2 20 15 73 20 85 8 9 -9 21 -1 54 31 l42 42 -30 0 c-17 0 -43 -7 -59
-15z"/>
<path d="M8874 13014 c-124 -63 -175 -114 -100 -100 35 7 57 -7 39 -25 -15
-15 -131 -23 -147 -10 -11 9 -18 6 -36 -16 -12 -15 -24 -39 -27 -54 -3 -15
-20 -36 -41 -50 -21 -13 -38 -33 -40 -44 -2 -11 -13 -27 -25 -35 -53 -37 -90
-77 -112 -121 -14 -26 -29 -50 -35 -54 -18 -11 -11 31 10 58 11 14 20 30 20
35 0 6 11 23 24 39 13 16 34 47 46 71 14 27 35 48 57 59 19 9 39 28 44 42 6
14 35 49 66 78 64 61 67 77 5 32 l-41 -30 -11 22 c-9 16 -14 18 -20 9 -6 -10
-15 -10 -39 -2 -26 9 -31 8 -31 -4 0 -19 -26 -61 -64 -102 -20 -21 -43 -35
-68 -39 -65 -10 -55 -25 11 -17 34 3 61 4 61 1 0 -4 -15 -14 -32 -23 -18 -9
-45 -28 -60 -42 -25 -23 -26 -26 -11 -37 15 -11 14 -15 -6 -44 -12 -17 -20
-35 -16 -40 3 -6 -3 -14 -12 -20 -17 -10 -17 -10 0 -11 24 0 21 -14 -5 -33
l-23 -16 25 -1 c14 0 34 -8 45 -17 17 -13 17 -15 2 -9 -21 7 -77 -14 -114 -44
-43 -34 -123 -108 -123 -115 0 -10 43 16 73 43 36 34 127 43 127 12 0 -10 -5
-22 -11 -26 -6 -3 -9 -15 -6 -25 3 -12 -4 -26 -20 -39 l-26 -20 24 0 c24 0 24
-1 24 -100 0 -83 3 -102 18 -115 25 -22 21 -48 -13 -73 -36 -27 -77 -28 -110
-2 -33 26 -51 25 -102 -4 -37 -20 -62 -50 -94 -113 -3 -6 1 -27 9 -45 9 -18
18 -49 21 -68 3 -19 8 -51 12 -70 6 -34 6 -34 -11 -15 -15 19 -16 14 -11 -95
4 -72 2 -110 -4 -100 -5 8 -12 12 -15 8 -8 -7 54 -151 66 -156 5 -2 9 -12 9
-22 0 -10 14 -48 30 -85 33 -73 38 -115 15 -115 -7 0 -18 6 -22 14 -4 8 -25
33 -47 56 -26 29 -42 38 -49 31 -7 -7 -5 -18 7 -35 19 -29 20 -36 6 -36 -15 0
-86 102 -100 143 -10 33 -30 52 -30 29 0 -5 -9 -19 -20 -32 -11 -13 -20 -34
-20 -48 0 -14 -11 -40 -25 -58 -14 -18 -25 -36 -25 -41 0 -4 5 -1 10 7 7 11
10 12 10 2 0 -16 -24 -42 -38 -42 -28 0 -180 -232 -219 -334 -14 -39 -34 -84
-44 -101 -26 -46 -76 -196 -84 -251 -3 -27 -13 -85 -22 -129 -9 -44 -16 -132
-17 -195 -1 -108 1 -117 24 -151 l26 -36 16 111 c9 61 25 131 36 156 11 25 23
65 27 89 8 51 53 149 92 204 86 119 171 216 216 247 44 31 74 69 107 135 12
26 35 55 43 55 4 0 13 -13 21 -28 14 -27 13 -31 -31 -95 -27 -40 -66 -82 -97
-105 -29 -20 -68 -56 -87 -80 -19 -24 -62 -77 -96 -118 -82 -97 -106 -140
-143 -254 -55 -170 -76 -491 -44 -675 9 -49 19 -106 21 -125 3 -19 9 -39 13
-45 10 -13 77 -211 89 -263 9 -42 3 -53 -17 -29 -5 6 -19 53 -31 102 -30 125
-52 197 -59 191 -5 -6 20 -106 39 -154 13 -34 11 -63 -7 -83 -14 -16 -14 -23
0 -76 9 -32 23 -74 30 -93 8 -19 28 -83 46 -142 l32 -107 2 -288 c1 -267 3
-294 24 -371 13 -46 22 -107 21 -135 -1 -29 3 -94 8 -145 12 -106 -1 -232 -37
-376 -15 -61 -20 -110 -19 -168 2 -46 -3 -119 -10 -162 -7 -43 -9 -91 -6 -105
4 -14 7 -89 6 -165 0 -77 4 -159 10 -184 5 -25 35 -97 65 -161 47 -99 65 -127
129 -191 87 -88 115 -142 232 -445 42 -110 57 -156 84 -265 49 -196 63 -277
84 -460 18 -162 33 -250 46 -266 5 -6 6 -63 2 -128 -6 -115 -7 -118 -35 -139
-37 -27 -35 -49 8 -96 26 -30 35 -49 37 -79 2 -54 -15 -72 -70 -72 -38 0 -98
-20 -113 -39 -3 -3 -20 -15 -39 -25 -19 -10 -75 -52 -126 -92 -100 -80 -123
-116 -144 -228 -6 -33 -22 -77 -36 -98 -14 -20 -25 -44 -25 -52 0 -7 19 -56
42 -107 l42 -94 -2 -118 c-1 -88 -5 -123 -17 -139 -23 -34 -20 -88 12 -178 4
-10 14 3 29 35 26 58 31 42 8 -25 -14 -39 -16 -84 -10 -345 3 -165 10 -333 16
-372 10 -73 35 -138 64 -162 25 -21 19 -50 -11 -62 -30 -11 -58 -8 -143 17
-35 10 -118 19 -225 23 l-171 7 -79 40 c-73 36 -87 39 -160 39 -62 -1 -98 -7
-160 -29 -68 -25 -102 -30 -230 -36 -149 -8 -227 -25 -308 -67 -23 -12 -256
-196 -413 -327 l-35 -28 -57 25 c-52 23 -62 25 -112 15 -31 -6 -104 -8 -167
-5 -147 8 -212 -12 -294 -90 -91 -87 -139 -207 -185 -461 -13 -74 -26 -137
-28 -139 -2 -2 -11 15 -20 38 -18 44 -31 43 -38 -1 l-4 -25 -13 30 c-7 17 -21
67 -30 113 -17 79 -31 99 -31 41 0 -15 -4 -31 -10 -34 -6 -3 -10 -2 -10 2 0
12 -111 56 -215 87 -22 6 -51 19 -65 28 -14 9 -35 19 -47 22 -12 4 -24 15 -27
24 -6 17 -16 24 -83 55 -34 17 -53 44 -53 77 0 12 -13 48 -30 82 -16 33 -27
64 -24 69 3 5 0 8 -6 7 -7 -2 -14 8 -16 22 -3 13 -9 29 -14 34 -6 6 -10 22
-10 37 0 15 -4 30 -9 33 -4 3 -11 25 -15 48 -4 24 -11 58 -16 76 -6 17 -14 47
-20 65 -20 70 -30 585 -12 652 6 22 14 71 18 110 3 38 13 87 20 109 8 21 14
50 14 65 0 14 10 55 23 91 36 99 53 158 72 240 10 41 22 83 26 93 11 21 24
137 16 137 -6 0 -21 -50 -72 -240 -20 -74 -40 -139 -45 -144 -14 -14 -13 53 1
94 10 28 9 39 -8 74 -74 148 -100 221 -84 239 7 9 7 25 1 48 -12 45 -50 306
-50 342 0 16 -11 62 -25 103 -14 41 -25 88 -25 104 0 16 -4 31 -9 34 -5 3 -11
20 -14 38 -2 18 -13 56 -24 84 -25 64 -37 117 -38 173 -1 30 -7 47 -19 57 -14
10 -17 20 -12 41 14 54 -12 9 -34 -62 -12 -38 -34 -101 -48 -140 -32 -83 -30
-67 -37 -280 -5 -152 -4 -167 8 -140 20 41 27 17 43 -139 9 -78 -13 -73 -37
10 l-17 59 -12 -30 c-9 -23 -9 -39 0 -69 11 -38 4 -55 -22 -56 -5 0 -8 -12 -8
-26 0 -14 -9 -33 -21 -42 -29 -25 -35 -87 -14 -168 11 -42 17 -97 16 -141 -1
-44 2 -74 9 -78 19 -12 50 26 57 68 10 63 39 89 107 94 43 3 65 -1 83 -13 24
-15 25 -20 20 -73 l-6 -57 49 -44 c54 -48 62 -63 84 -165 17 -78 12 -133 -23
-270 -48 -189 -64 -276 -71 -375 -4 -58 -15 -129 -25 -158 -11 -32 -15 -66
-12 -88 3 -19 -1 -65 -8 -102 -8 -37 -15 -90 -15 -118 0 -28 -9 -93 -20 -144
-32 -147 -24 -244 32 -385 62 -159 124 -228 265 -294 68 -32 309 -111 340
-111 15 -1 53 -10 83 -21 115 -43 282 -99 294 -99 7 0 21 -9 31 -20 10 -11 24
-20 31 -20 7 0 32 -24 56 -52 81 -99 145 -156 180 -163 18 -3 101 1 183 10 83
10 171 19 197 22 60 6 111 -11 141 -46 36 -43 65 -55 147 -56 54 -1 88 -8 120
-23 57 -27 102 -27 176 0 64 23 131 26 179 7 16 -7 51 -35 77 -62 44 -47 49
-49 84 -44 27 5 64 -1 124 -20 92 -28 134 -31 224 -15 38 7 66 7 77 1 10 -5
32 -9 49 -9 23 0 33 -5 37 -19 6 -24 59 -32 131 -19 30 5 60 7 67 4 7 -2 17 6
24 20 12 28 60 32 101 9 14 -8 50 -15 80 -15 56 -1 129 -13 165 -29 11 -5 39
-14 63 -21 37 -9 47 -9 67 4 30 20 45 20 81 1 38 -19 73 -19 81 1 5 13 14 15
46 10 24 -4 45 -2 53 5 11 9 19 8 34 -6 14 -13 26 -15 47 -9 15 4 44 7 64 5
20 -1 40 2 44 8 9 16 41 13 56 -5 11 -13 25 -15 76 -9 43 4 63 3 63 -4 0 -7
10 -9 24 -5 13 3 40 1 60 -4 28 -8 40 -7 58 6 50 36 62 40 74 23 19 -25 93
-15 127 17 28 26 29 26 42 8 12 -16 17 -17 30 -6 13 11 18 10 28 -4 11 -16 14
-15 35 5 22 19 25 20 41 5 10 -9 25 -14 34 -10 9 3 31 -1 48 -10 44 -22 92
-20 114 4 22 24 38 25 55 5 15 -18 61 -20 78 -3 9 9 16 8 29 -4 14 -11 26 -13
51 -6 28 7 32 13 32 41 0 40 31 61 105 71 108 15 121 18 100 27 -11 4 -41 8
-67 8 -67 1 -61 19 22 64 38 21 72 42 75 47 4 6 14 10 25 10 10 0 38 11 61 25
34 19 39 25 22 25 -12 0 -25 -4 -28 -10 -10 -17 -35 -11 -35 8 0 12 13 23 35
32 19 8 35 18 35 22 0 5 6 8 13 7 26 -3 36 1 31 14 -3 8 12 25 36 41 25 17 40
34 40 47 0 21 -1 21 -21 -2 -15 -17 -19 -19 -15 -6 6 19 3 21 -22 8 -47 -24
-103 -43 -109 -37 -4 4 -1 11 6 15 11 7 11 10 0 14 -11 5 -10 9 4 20 17 14 17
15 0 22 -15 5 -12 10 19 29 21 12 47 31 58 41 19 17 19 19 3 30 -15 11 -20 10
-31 -7 -8 -10 -20 -17 -28 -14 -7 3 -16 1 -19 -5 -8 -12 -25 -2 -25 16 0 16
64 61 96 67 10 2 19 10 19 18 0 25 -33 23 -60 -4 -14 -14 -29 -26 -34 -26 -4
0 -23 -11 -41 -25 -26 -19 -42 -24 -63 -19 -19 4 -56 -6 -124 -32 -126 -51
-146 -77 -153 -208 l-5 -91 -18 63 c-27 97 -58 150 -141 237 -42 44 -87 95
-99 112 -12 18 -25 33 -28 33 -10 0 -19 -96 -19 -199 0 -52 -2 -92 -4 -90 -3
2 -10 45 -17 94 -7 56 -23 114 -40 153 -16 35 -29 67 -29 72 0 4 -6 10 -14 13
-8 3 -17 21 -21 39 -16 78 -28 86 -39 24 -4 -19 -13 -39 -21 -46 -13 -11 -15
-5 -16 41 -3 89 1 129 22 230 22 109 52 193 99 274 18 31 29 62 26 70 -3 9 0
15 7 15 14 0 43 36 67 84 22 43 94 111 175 165 39 25 86 58 105 72 19 15 77
46 129 69 97 44 116 48 339 71 127 14 133 20 78 75 -19 19 -44 50 -56 69 -32
51 -118 125 -178 152 -64 28 -146 31 -215 6 -64 -23 -74 -10 -36 47 17 25 60
103 96 175 35 71 67 132 69 135 3 2 9 -1 13 -8 5 -8 18 11 36 55 15 37 38 84
51 103 14 23 24 56 28 95 2 33 19 101 36 150 27 78 31 99 26 158 -3 47 -13 82
-29 110 -14 23 -28 53 -32 66 -4 12 -18 39 -31 58 -25 37 -32 97 -14 108 31
19 111 -134 94 -179 -5 -12 -2 -15 10 -10 22 8 22 91 0 124 -9 14 -40 50 -69
80 -29 30 -56 68 -59 83 -10 41 -81 114 -137 140 -27 12 -49 28 -49 35 0 24
-50 92 -80 107 -22 11 -44 14 -85 9 l-55 -7 -15 36 c-8 20 -15 64 -15 97 0 51
4 65 25 85 13 14 31 25 40 25 28 0 77 31 188 118 112 88 177 148 177 163 0 13
-12 11 -34 -6 -11 -8 -27 -15 -35 -15 -8 0 -26 -11 -40 -24 -35 -31 -112 -56
-158 -50 -68 9 -83 14 -83 28 0 22 33 45 131 87 98 42 129 63 129 86 0 19 -30
16 -75 -7 -78 -40 -70 -18 15 40 39 26 61 50 69 71 15 43 15 42 -20 34 -31 -7
-31 -6 -25 20 21 85 21 87 -10 79 -16 -3 -56 -16 -89 -29 -33 -12 -85 -28
-115 -35 -30 -7 -72 -19 -93 -26 -45 -17 -93 -18 -136 -3 -23 8 -44 30 -74 78
-58 90 -67 113 -67 175 0 63 6 68 82 57 52 -7 118 -42 118 -62 0 -5 11 -9 25
-9 14 0 25 5 25 10 0 6 -4 10 -10 10 -5 0 -10 6 -10 13 0 7 -10 23 -22 34 -13
11 -35 34 -49 51 -14 17 -43 35 -65 41 -21 6 -61 24 -89 39 -39 21 -50 33 -50
52 -1 22 -5 25 -38 24 -35 -1 -37 1 -38 30 -1 32 -4 23 -40 -106 -5 -21 -21
-50 -34 -64 -13 -14 -27 -35 -30 -45 -4 -11 -11 -17 -16 -14 -14 9 -11 32 6
49 14 14 14 21 1 72 -8 31 -17 59 -21 62 -12 12 -25 -24 -25 -71 0 -55 -22
-74 -47 -41 -11 15 -13 36 -8 93 6 72 -9 161 -27 161 -25 0 -73 147 -103 314
-15 90 -28 131 -44 141 -6 3 -11 16 -11 29 0 12 -9 41 -20 64 -11 22 -20 50
-20 62 0 11 -4 20 -8 20 -10 0 -32 67 -32 94 0 9 -11 27 -24 39 -14 13 -28 36
-32 53 -9 39 -97 225 -103 218 -5 -5 -37 77 -48 126 -3 13 -17 36 -30 50 -17
18 -23 33 -19 51 3 14 0 31 -7 38 -6 6 -14 47 -17 90 -6 74 -21 121 -89 271
-15 34 -16 45 -13 296 l1 81 63 8 63 8 -64 9 c-104 14 -156 42 -201 108 -39
58 -70 122 -70 147 0 14 0 14 87 -45 18 -12 36 -22 41 -22 5 0 24 -8 43 -17
68 -36 247 -11 363 50 113 60 198 162 221 264 3 18 10 35 15 38 17 10 39 -82
44 -185 6 -113 35 -250 66 -315 l20 -41 72 7 c40 4 82 8 94 8 15 1 20 7 20 23
-1 18 6 24 39 30 86 18 244 29 332 24 81 -5 94 -3 117 15 25 20 236 69 296 69
14 0 35 7 46 15 10 8 37 15 59 15 22 0 80 9 130 19 84 17 130 18 121 2 -3 -4
-1 -13 4 -21 6 -10 12 -5 23 21 20 47 29 53 137 79 82 20 308 93 528 170 34
12 69 19 78 16 17 -6 84 -141 84 -168 0 -10 4 -26 9 -36 21 -43 54 -132 66
-182 8 -30 20 -71 28 -90 8 -19 18 -55 22 -80 3 -25 16 -76 27 -114 14 -47 19
-82 14 -113 -4 -30 -1 -54 9 -73 8 -16 15 -42 15 -57 l-1 -28 -19 23 c-10 12
-20 28 -23 35 -2 6 -7 9 -11 5 -4 -3 0 -31 10 -61 15 -42 22 -53 36 -49 25 6
34 -25 14 -47 -20 -22 -21 -51 -1 -51 37 0 25 -178 -22 -300 -22 -58 -48 -246
-33 -237 3 2 27 13 53 26 41 19 53 21 82 11 18 -6 39 -18 45 -26 45 -54 38 70
-7 142 -63 98 -86 264 -48 349 29 66 55 192 55 268 0 144 -31 357 -75 517 -40
143 -77 343 -68 368 7 17 23 4 23 -19 0 -10 5 -19 10 -19 6 0 10 -6 10 -14 0
-26 43 -97 51 -84 4 7 3 20 -2 29 -12 22 -12 52 0 45 24 -15 28 247 7 391 -4
29 -12 55 -17 59 -5 3 -9 26 -9 52 0 29 -8 59 -19 79 -26 41 -32 78 -35 204
-2 76 -7 115 -21 144 -10 22 -17 49 -16 59 4 28 73 127 148 213 35 40 63 77
63 83 0 5 39 49 88 97 48 47 70 74 49 58 -20 -15 -65 -41 -100 -57 -79 -38
-141 -39 -233 -6 -38 14 -87 31 -109 38 -47 15 -99 51 -122 86 -24 38 -9 40
43 6 27 -18 65 -33 93 -37 25 -3 62 -10 82 -15 50 -14 163 -12 194 2 14 6 39
33 56 60 17 26 59 74 93 106 77 71 112 117 136 179 10 26 24 47 31 45 7 -2 9
5 6 20 -3 13 -9 55 -12 93 -8 74 -27 166 -68 330 -14 55 -37 163 -52 239 -14
77 -35 158 -47 180 -23 47 -68 109 -74 103 -2 -2 3 -24 12 -48 26 -74 37 -159
23 -191 -16 -38 -27 -35 -34 10 -9 51 -16 74 -21 69 -2 -2 3 -43 11 -90 11
-61 12 -94 5 -112 -14 -38 -33 -26 -43 26 -4 24 -14 69 -22 99 -8 30 -19 87
-24 125 -22 151 -154 489 -212 541 -53 46 -230 74 -609 94 -113 6 -250 15
-305 20 -55 5 -141 9 -191 10 -50 0 -112 3 -138 6 -46 7 -46 7 -46 45 0 25 8
47 25 67 14 17 25 40 25 51 0 12 11 32 23 44 32 30 44 124 34 262 -11 140 -21
212 -32 235 -7 14 -15 41 -19 61 -11 64 -78 132 -166 170 -14 5 -34 18 -45 28
-18 17 -132 97 -162 115 -23 13 -14 -14 12 -36 13 -11 22 -25 19 -30 -3 -4 0
-8 6 -8 6 0 9 -4 6 -8 -3 -5 24 -44 59 -87 35 -44 63 -81 61 -82 -2 -2 -16 1
-31 7 -26 10 -27 9 -14 -7 8 -10 41 -46 74 -81 33 -34 65 -75 72 -91 11 -27
11 -28 -15 -23 -33 6 -109 55 -222 142 -157 122 -163 116 -15 -13 42 -36 17
-33 -65 8 -39 19 -70 31 -70 27 0 -14 82 -92 113 -108 15 -8 27 -17 27 -20 0
-2 -9 0 -20 6 -33 17 -24 2 40 -70 52 -59 77 -100 53 -88 -5 2 -21 10 -38 17
-77 35 -101 50 -173 109 -42 35 -90 70 -105 78 l-28 15 15 -23 c8 -13 47 -52
86 -86 75 -68 97 -105 30 -52 -68 54 -55 33 65 -101 18 -20 38 -45 46 -56 8
-11 22 -22 32 -26 9 -3 17 -15 17 -25 0 -11 7 -25 15 -32 8 -7 15 -17 15 -22
0 -5 -31 26 -70 69 -78 88 -140 148 -140 135 0 -4 4 -12 9 -17 5 -6 24 -46 41
-90 18 -44 38 -85 44 -90 6 -6 25 -26 41 -44 26 -29 27 -32 7 -22 -18 10 -23
9 -28 -3 -3 -8 -2 -21 2 -27 5 -9 2 -10 -10 -6 -16 6 -17 3 -11 -30 13 -63 10
-167 -4 -158 -6 3 -13 26 -17 51 -4 30 -17 58 -36 80 -57 65 -64 31 -18 -79
17 -39 35 -91 41 -116 10 -46 4 -101 -11 -101 -17 0 -96 76 -92 88 2 7 -6 12
-21 12 -19 0 -26 6 -30 28 -9 43 -50 96 -84 107 -19 6 -71 51 -130 113 -54 56
-102 102 -106 102 -18 0 63 -101 149 -186 51 -51 100 -107 109 -125 27 -52 46
-71 61 -58 9 8 14 -2 21 -43 6 -33 6 -57 0 -63 -6 -7 -11 -6 -14 2 -13 37
-203 251 -203 230 0 -11 147 -207 176 -235 13 -13 24 -31 24 -40 0 -12 -10 -7
-36 21 -30 32 -64 49 -64 32 0 -12 57 -93 92 -130 22 -23 33 -42 26 -44 -7 -2
-23 11 -37 30 -62 82 -74 89 -140 86 -49 -3 -71 2 -118 24 -65 30 -91 27 -49
-6 27 -21 123 -45 183 -45 28 0 53 -15 53 -32 0 -13 -95 -9 -138 6 -25 9 -44
11 -47 5 -4 -5 3 -9 13 -9 11 0 25 -7 32 -15 15 -18 4 -19 -39 -4 -42 15 -127
3 -112 -15 6 -7 29 -18 51 -25 44 -13 45 -14 30 -41 -9 -18 -13 -18 -55 -3
-25 8 -67 35 -95 60 -27 25 -50 40 -50 33 0 -13 98 -110 112 -110 16 0 7 -30
-9 -30 -15 -1 -14 -4 6 -20 13 -11 35 -23 50 -27 14 -3 32 -10 38 -16 17 -13
5 -29 -17 -22 -25 8 -70 -12 -70 -31 0 -9 14 -32 30 -51 17 -18 30 -40 30 -48
0 -32 -37 -12 -97 52 -35 37 -63 63 -63 57 0 -5 23 -33 50 -62 48 -51 60 -72
40 -72 -13 0 -109 101 -116 123 -3 9 -9 17 -14 17 -12 0 6 -43 37 -89 21 -33
22 -51 3 -51 -13 0 -115 149 -139 205 -20 45 -20 51 -6 61 14 10 14 12 0 18
-8 3 -15 12 -15 21 0 8 -4 23 -9 33 -5 9 -16 46 -24 82 l-16 65 1 -50 c1 -27
-3 -51 -8 -53 -13 -4 -23 62 -22 151 1 48 -3 82 -10 89 -9 9 -12 -3 -14 -52
-1 -36 -3 -90 -4 -120 -6 -135 25 -351 61 -422 21 -42 19 -45 -9 -19 -49 46
-75 224 -74 506 1 190 -1 216 -21 272 -11 34 -21 73 -21 85 0 13 -7 37 -16 53
-10 19 -15 53 -15 95 2 109 4 115 35 112 14 -1 26 2 26 8 0 27 20 -6 49 -82
37 -97 46 -114 55 -100 9 14 -29 148 -71 252 -25 62 -33 94 -28 117 4 25 2 34
-13 42 -20 11 -49 68 -39 77 3 4 20 -1 38 -10 18 -9 38 -16 46 -16 7 0 13 -3
13 -7 0 -5 18 -28 40 -53 39 -44 40 -44 34 -15 -4 17 -11 37 -17 45 -6 8 2 3
17 -12 60 -61 41 -22 -45 92 -34 45 -59 83 -57 85 7 7 89 -27 137 -57 42 -26
71 -35 71 -22 0 3 -11 22 -25 42 -35 52 -33 65 10 59 19 -3 46 -12 60 -21 35
-23 31 -6 -6 30 -17 16 -35 37 -41 48 -9 17 -7 18 18 12 16 -4 52 -24 79 -45
28 -20 66 -48 85 -61 47 -33 30 -9 -69 93 -64 66 -72 77 -48 72 32 -8 35 4 11
40 -30 46 9 24 161 -92 39 -30 48 -26 15 7 -43 43 -151 172 -148 176 3 2 28
-11 56 -31 28 -19 54 -35 57 -35 12 0 -16 39 -56 78 -24 23 -41 43 -38 46 2 2
36 -15 74 -40 65 -40 70 -42 73 -23 2 11 -4 30 -14 40 -18 20 -17 20 10 10 44
-17 59 -14 46 8 -13 25 -2 32 30 18 14 -5 41 -11 60 -12 42 -3 151 -33 165
-46 12 -12 48 -12 40 0 -3 5 -27 17 -53 26 -26 10 -61 24 -79 31 -17 8 -34 14
-37 14 -4 0 -33 17 -64 37 -31 21 -68 43 -82 50 -14 6 -20 12 -13 12 6 1 19 8
28 18 18 17 81 22 128 10 51 -14 28 12 -25 28 -69 20 -82 19 -128 -10 -41 -26
-80 -33 -80 -15 0 6 8 13 18 17 9 3 41 16 70 30 29 13 57 21 62 18 14 -9 78
16 84 32 4 10 -11 13 -62 13 -61 0 -78 -5 -158 -46z m9 -131 c-7 -2 -19 -2
-25 0 -7 3 -2 5 12 5 14 0 19 -2 13 -5z m512 -793 c3 -5 1 -10 -4 -10 -6 0
-11 5 -11 10 0 6 2 10 4 10 3 0 8 -4 11 -10z m-1255 -140 c0 -5 -4 -10 -9 -10
-6 0 -13 5 -16 10 -3 6 1 10 9 10 9 0 16 -4 16 -10z m1586 -367 c3 -32 7 -71
8 -88 4 -41 -4 -65 -21 -65 -12 0 -14 7 -9 31 5 28 4 30 -11 18 -15 -13 -16
-9 -10 50 4 35 7 85 7 110 0 44 1 45 15 23 9 -12 18 -48 21 -79z m609 -93 c88
-6 243 -14 345 -19 239 -12 341 -32 386 -78 21 -21 35 -46 39 -70 6 -43 37
-141 103 -328 35 -98 45 -142 44 -183 -1 -30 3 -63 9 -74 6 -11 21 -58 34
-103 22 -82 22 -84 4 -114 -22 -37 -45 -40 -54 -8 -4 12 -19 51 -33 87 -22 56
-24 69 -14 105 10 35 8 45 -13 86 -34 65 -105 289 -105 330 0 19 -3 57 -6 85
-5 42 -12 54 -34 67 -59 35 -194 54 -477 67 -387 17 -708 44 -746 61 -20 9
-47 67 -47 100 0 13 257 8 565 -11z m-712 -72 c7 -27 -9 -313 -17 -327 -4 -5
-13 -48 -21 -96 -19 -108 -37 -145 -65 -138 -19 5 -21 11 -15 47 4 24 18 53
35 71 41 44 48 81 56 283 6 170 14 214 27 160z m-79 -85 c-12 -79 -62 -209
-71 -185 -3 7 0 18 5 25 14 16 52 168 52 204 0 31 8 46 20 38 4 -2 1 -39 -6
-82z m275 -86 c9 -8 67 -13 165 -15 326 -5 526 -22 866 -72 74 -10 138 -19
143 -20 16 0 6 -49 -19 -85 -14 -21 -23 -44 -19 -53 6 -17 -33 -191 -49 -210
-8 -11 -43 -12 -175 -7 -149 6 -173 10 -232 34 -62 26 -68 27 -150 17 -141
-17 -225 -12 -304 18 -67 26 -74 27 -152 16 -45 -6 -102 -19 -125 -30 -24 -11
-55 -20 -71 -20 -20 0 -30 -7 -39 -27 -62 -147 -126 -275 -162 -326 -23 -35
-51 -79 -61 -100 -23 -48 -60 -77 -99 -77 -39 0 -49 7 -80 53 -31 45 -31 47
-8 47 9 0 27 6 40 13 23 12 28 23 88 199 19 55 50 77 39 28 -5 -25 -4 -29 9
-24 12 4 16 0 16 -15 0 -35 23 -24 57 27 23 33 38 74 52 137 11 50 37 138 60
197 32 84 101 299 101 314 0 1 10 4 23 6 25 4 64 -7 86 -25z m-513 -203 c-4
-9 -9 -15 -11 -12 -3 3 -3 13 1 22 4 9 9 15 11 12 3 -3 3 -13 -1 -22z m-1264
-405 c5 -3 -8 -21 -29 -40 -81 -72 -235 -233 -303 -317 -103 -128 -110 -146
-110 -284 0 -63 -5 -140 -11 -169 -19 -95 -13 -344 10 -442 12 -46 21 -96 21
-111 0 -14 16 -73 35 -130 19 -58 35 -120 35 -138 l-1 -33 -23 26 c-13 15 -30
58 -40 100 -10 41 -25 86 -32 101 -8 16 -28 88 -46 160 -42 180 -49 395 -20
639 22 185 38 228 119 329 67 82 210 227 299 304 l79 68 3 -29 c2 -15 8 -31
14 -34z m24 -206 c11 -4 -15 -37 -93 -117 -173 -178 -232 -253 -258 -326 -12
-35 -12 -41 6 -64 17 -22 19 -41 19 -188 0 -192 22 -436 44 -493 8 -22 20 -80
25 -130 6 -49 14 -105 17 -124 7 -36 -9 -56 -34 -42 -25 14 -72 142 -72 196 0
28 -7 75 -15 105 -31 109 -34 127 -45 289 -9 127 -9 190 0 277 11 100 10 115
-4 135 -23 33 -20 72 10 132 43 84 269 334 351 389 l28 18 3 -26 c2 -14 10
-28 18 -31z m319 2 c-16 -13 -34 -24 -40 -24 -5 0 4 11 20 24 17 14 35 25 40
25 6 0 -3 -11 -20 -25z m2190 -185 c0 -100 -3 -131 -17 -155 l-17 -30 2 40 c2
37 0 40 -26 43 -24 3 -30 -2 -40 -27 -10 -27 -16 -31 -49 -31 -32 0 -40 -5
-53 -30 -17 -32 -26 -36 -55 -20 -15 8 -23 4 -45 -22 l-27 -32 23 -17 c25 -19
73 -35 135 -45 41 -6 41 -6 73 45 17 28 31 55 31 60 0 5 7 15 16 22 15 12 16
11 10 -11 -4 -14 -17 -38 -27 -53 -11 -15 -19 -35 -17 -44 5 -28 68 40 68 74
0 15 13 50 29 77 26 44 30 47 39 29 23 -43 -44 -199 -115 -265 -45 -42 -152
-91 -209 -96 -46 -4 -53 -1 -82 28 -21 21 -32 41 -32 61 0 29 1 29 57 29 37 0
62 -5 73 -15 15 -14 22 -13 66 6 l49 22 -64 13 c-73 16 -147 59 -185 108 -26
34 -57 118 -76 201 -12 55 -5 65 45 65 17 0 63 9 103 20 86 24 88 24 73 6 -7
-8 -55 -22 -107 -32 -53 -9 -98 -22 -100 -29 -6 -15 34 -143 47 -151 17 -10
122 27 186 66 57 34 134 61 188 65 27 2 31 41 10 110 -16 58 -11 93 9 59 6
-11 11 -70 11 -144z m-173 25 c0 -5 -5 -11 -11 -13 -6 -2 -11 4 -11 13 0 9 5
15 11 13 6 -2 11 -8 11 -13z m-91 -25 c25 -14 26 -71 0 -94 -29 -26 -88 -32
-111 -11 -62 57 33 146 111 105z m-2130 -33 c-17 -17 -13 -55 9 -77 11 -11 17
-26 14 -35 -5 -11 1 -15 20 -15 19 0 27 -6 32 -25 3 -13 15 -27 25 -30 10 -4
19 -15 19 -25 0 -10 5 -22 11 -26 7 -4 10 -1 7 7 -2 7 4 22 14 33 10 11 18 31
18 44 0 21 4 24 30 20 20 -3 30 0 30 9 0 7 9 13 19 13 11 0 22 6 24 13 3 6 6
2 6 -10 1 -13 -14 -35 -36 -55 -99 -89 -105 -96 -94 -117 25 -46 -2 -88 -84
-129 -46 -23 -91 -65 -100 -93 -12 -38 -39 -22 -109 66 -26 33 -62 72 -79 87
-29 24 -31 29 -19 49 13 20 12 21 -12 15 -14 -3 -26 -3 -26 0 0 33 280 326
289 302 2 -5 -2 -15 -8 -21z m584 -662 l50 -44 -21 -21 c-26 -27 -44 -22 -98
24 -39 34 -39 34 -23 60 10 14 23 26 30 26 6 0 35 -20 62 -45z m143 -77 c3
-31 -2 -40 -31 -62 -44 -34 -55 -33 -59 5 -2 24 5 40 27 65 38 42 59 40 63 -8z
m-213 -11 c20 -18 20 -18 -5 -37 -31 -24 -32 -24 -64 1 -31 25 -32 33 -5 60
22 22 23 21 74 -24z m-100 -66 c6 -10 -25 -31 -46 -31 -8 0 -5 7 6 20 20 22
31 25 40 11z m55 -67 c0 -13 -4 -24 -10 -24 -5 0 -10 14 -10 31 0 17 4 28 10
24 6 -3 10 -17 10 -31z m1460 -82 c-1 -34 -65 -88 -164 -138 -95 -47 -98 -50
-90 -93 4 -20 9 -40 12 -45 2 -4 41 28 86 72 111 109 136 120 136 61 0 -17
-16 -47 -46 -83 -50 -62 -64 -69 -64 -31 0 14 -3 25 -7 25 -5 0 -40 -31 -78
-68 -39 -37 -94 -80 -122 -95 l-52 -28 -6 38 c-3 21 -13 77 -23 125 -10 48
-16 92 -12 98 4 6 40 23 81 40 41 16 132 58 204 93 71 36 133 63 137 60 5 -2
8 -16 8 -31z m-550 -348 l26 -139 35 3 c24 2 38 -1 42 -11 8 -20 -3 -33 -45
-50 -34 -14 -38 -20 -38 -50 0 -35 0 -35 -70 -52 -101 -25 -103 -24 -110 10
-4 22 -11 29 -25 28 -11 -1 -68 -5 -127 -9 -103 -7 -108 -6 -108 13 0 10 13
29 29 40 34 26 115 161 132 223 7 25 18 51 24 58 14 15 185 82 200 78 6 -1 21
-65 35 -142z m313 -71 c4 -22 -4 -36 -40 -75 -54 -57 -81 -68 -100 -42 -28 38
-16 61 50 104 34 22 67 40 73 40 7 0 14 -12 17 -27z m-1833 -1404 c0 -6 -4 -7
-10 -4 -5 3 -10 11 -10 16 0 6 5 7 10 4 6 -3 10 -11 10 -16z m-85 -79 c3 -5
12 -40 20 -77 8 -38 23 -94 35 -127 12 -32 20 -68 18 -80 -2 -13 -12 9 -27 54
-30 94 -45 128 -73 162 -18 23 -20 31 -10 53 12 26 26 32 37 15z m498 -1396
c16 -43 49 -158 74 -254 59 -227 118 -345 235 -469 55 -57 127 -144 183 -219
23 -31 67 -84 98 -117 53 -56 56 -58 57 -34 0 21 -15 39 -64 80 -35 30 -70 65
-78 79 -7 14 -21 34 -30 44 -21 23 -24 46 -6 46 19 0 156 -140 199 -204 43
-65 46 -71 24 -62 -20 7 -20 -23 0 -50 8 -12 12 -23 10 -26 -13 -13 50 -51
111 -66 l69 -17 3 -77 c2 -55 -1 -78 -9 -78 -18 0 -81 41 -117 77 -21 21 -42
33 -60 33 l-27 0 30 -25 30 -24 -36 -1 c-48 0 -55 -10 -23 -35 26 -20 27 -27
25 -91 -1 -38 -7 -73 -12 -78 -5 -6 -9 -27 -9 -48 0 -45 -25 -53 -40 -12 -8
19 -16 25 -30 21 -11 -3 -18 -1 -17 4 4 16 -107 109 -130 109 -12 0 -35 11
-51 25 -21 18 -41 25 -68 24 -39 -1 -39 -1 -8 -8 17 -4 36 -11 42 -15 17 -10
15 -33 -4 -40 -31 -12 -55 -6 -80 21 -24 26 -26 26 -52 11 -20 -11 -35 -13
-57 -6 -16 5 -45 9 -62 9 -18 1 -30 5 -27 10 3 5 10 7 15 4 14 -9 10 18 -6 39
-8 11 -15 28 -15 37 0 10 -8 24 -17 31 -24 17 -53 71 -53 96 0 18 22 46 31 38
2 -2 16 -6 31 -10 22 -5 26 -3 22 8 -3 8 -15 16 -27 18 -27 4 -34 39 -13 57
10 9 12 19 7 34 -11 30 -2 87 15 94 18 7 18 23 1 23 -7 0 -26 14 -43 31 -25
27 -26 31 -9 27 11 -3 26 1 33 9 7 7 8 13 3 13 -10 0 -27 39 -23 53 1 4 -5 21
-14 38 -12 24 -13 34 -3 45 9 10 9 25 0 58 -6 25 -11 57 -11 73 l0 28 18 -23
c23 -30 31 -20 25 29 -6 44 6 51 30 17 16 -23 16 -22 16 15 1 35 -1 37 -24 31
-20 -5 -27 -1 -34 17 -8 21 -10 18 -16 -24 -10 -68 -25 -54 -30 28 -2 38 -9
71 -15 73 -5 2 -10 9 -10 16 0 6 -13 23 -30 36 -37 31 -39 65 -5 74 31 8 33
36 5 61 -21 19 -27 64 -10 81 7 7 11 64 11 143 -1 157 9 165 52 45z m-3 -735
c0 -11 -4 -18 -10 -14 -5 3 -7 12 -3 20 7 21 13 19 13 -6z m651 -186 c25 -16
38 -32 34 -40 -3 -8 -5 -17 -5 -19 0 -14 -25 1 -55 32 -57 58 -43 73 26 27z
m469 -33 c0 -6 -8 -13 -17 -17 -59 -19 -166 -72 -212 -105 -60 -42 -80 -46
-117 -22 -24 16 -24 17 -7 36 24 27 71 45 136 53 29 4 85 20 123 35 76 31 94
35 94 20z m-1140 -365 c0 -8 -2 -15 -4 -15 -2 0 -6 7 -10 15 -3 8 -1 15 4 15
6 0 10 -7 10 -15z m517 -241 c-9 -10 -38 16 -31 28 4 6 13 4 22 -6 9 -8 13
-19 9 -22z m-132 -74 c3 -5 1 -10 -4 -10 -6 0 -11 5 -11 10 0 6 2 10 4 10 3 0
8 -4 11 -10z m137 -22 c-5 -5 -32 -4 -63 1 -44 7 -48 9 -19 10 19 1 42 5 50
11 17 10 46 -8 32 -22z m-10 -40 c-9 -9 -15 -9 -24 0 -9 9 -7 12 12 12 19 0
21 -3 12 -12z m534 -24 c18 -15 18 -15 -6 -10 -14 3 -41 6 -60 7 -29 0 -31 2
-15 9 31 13 59 11 81 -6z m-351 -24 c9 -15 -37 -11 -58 4 -18 14 -18 14 0 18
20 5 48 -6 58 -22z m149 4 c11 -28 6 -54 -9 -54 -10 0 -15 11 -15 35 0 36 13
47 24 19z m272 -38 c22 -17 11 -35 -13 -20 -19 12 -29 34 -16 34 5 0 18 -6 29
-14z m-1266 -5 c0 -19 -43 -62 -57 -57 -9 4 -30 -7 -50 -25 -39 -34 -65 -28
-41 10 15 26 78 67 95 63 6 -1 14 2 18 8 8 12 35 13 35 1z m-274 -107 c-11 -7
-22 -12 -25 -9 -2 3 4 12 15 19 10 8 21 12 24 9 3 -2 -4 -11 -14 -19z m299 16
c-27 -12 -43 -12 -25 0 8 5 22 9 30 9 10 0 8 -3 -5 -9z m1072 -20 c4 -15 9
-17 23 -10 28 15 53 12 47 -4 -4 -10 2 -16 16 -19 21 -3 20 -4 -6 -15 -22 -9
-33 -9 -50 0 -12 7 -31 13 -42 13 -14 0 -21 8 -23 28 -2 20 1 27 13 27 9 0 19
-9 22 -20z m-1330 -47 c-19 -20 -40 -34 -46 -32 -15 5 27 65 54 77 34 16 30
-8 -8 -45z m393 7 c-8 -5 -19 -10 -25 -10 -5 0 -3 5 5 10 8 5 20 10 25 10 6 0
3 -5 -5 -10z m-460 -54 c0 -2 -7 -9 -15 -16 -12 -10 -15 -10 -15 4 0 9 7 16
15 16 8 0 15 -2 15 -4z m1707 -80 c-8 -20 -27 -20 -52 -2 -19 14 -19 14 0 35
19 22 19 22 38 2 11 -11 17 -26 14 -35z m65 19 c16 -35 2 -43 -27 -15 -30 28
-32 40 -5 40 12 0 25 -10 32 -25z m-926 -67 c9 -14 -23 -38 -53 -38 -28 0 -22
23 10 38 29 14 35 14 43 0z m648 -97 c3 -4 -1 -17 -9 -27 -11 -15 -16 -17 -26
-6 -10 9 -10 12 -1 12 7 0 12 7 12 15 0 16 16 20 24 6z m-524 -31 c0 -14 -58
-42 -78 -37 -12 3 -2 11 28 25 53 25 50 25 50 12z m42 -42 c-7 -7 -12 -8 -12
-2 0 14 12 26 19 19 2 -3 -1 -11 -7 -17z m136 -80 c-3 -7 -13 -13 -23 -13 -10
0 -20 6 -22 13 -3 7 5 12 22 12 17 0 25 -5 23 -12z m650 -74 c5 -5 15 -20 21
-33 15 -28 10 -50 -7 -30 -54 65 -63 81 -57 97 6 16 8 15 20 -3 8 -11 18 -25
23 -31z m-65 -106 c5 -18 -3 -48 -14 -48 -13 0 -22 27 -15 45 7 18 23 20 29 3z
m-333 -60 c0 -29 1 -30 18 -15 10 10 21 17 24 17 10 0 17 -71 8 -93 -8 -21 -9
-21 -22 11 -8 18 -17 29 -21 26 -10 -10 -37 22 -37 44 0 29 11 53 21 46 5 -3
9 -19 9 -36z m116 -54 c-3 -8 -10 -14 -16 -14 -14 0 -13 63 3 79 10 10 13 6
15 -19 2 -18 1 -38 -2 -46z m69 34 c-9 -54 -24 -93 -32 -85 -8 9 19 127 30
127 5 0 6 -19 2 -42z m185 17 c0 -33 -20 -75 -37 -75 -18 0 -17 25 3 66 19 40
34 44 34 9z m-480 -50 c0 -14 -32 -65 -40 -65 -15 0 -12 17 6 45 15 23 34 34
34 20z m-222 -112 c-15 -15 -31 -24 -34 -20 -10 10 26 47 45 47 11 0 8 -7 -11
-27z m-1017 -14 c19 -19 21 -30 17 -105 -7 -139 -40 -130 -58 16 -5 36 -12 75
-16 88 -5 18 -2 22 15 22 11 0 31 -10 42 -21z m1736 -11 c-3 -8 -6 -5 -6 6 -1
11 2 17 5 13 3 -3 4 -12 1 -19z m-6 -51 c-10 -9 -11 -8 -5 6 3 10 9 15 12 12
3 -3 0 -11 -7 -18z m-411 -722 c0 -8 -4 -15 -9 -15 -13 0 -22 16 -14 24 11 11
23 6 23 -9z m-2041 -194 c58 -15 106 -32 108 -38 6 -18 -92 -82 -145 -94 -37
-9 -61 -9 -95 0 -33 8 -54 8 -74 0 -38 -14 -143 -2 -150 19 -8 19 23 42 55 42
14 0 35 11 48 25 15 16 34 25 54 25 21 0 30 4 28 13 -7 19 -96 19 -173 0 -68
-17 -71 -19 -94 -65 -25 -52 -47 -55 -37 -6 5 27 4 29 -10 17 -9 -7 -20 -23
-24 -35 -9 -23 -57 -41 -72 -26 -10 10 63 106 88 116 9 4 60 11 112 16 53 6
98 12 100 15 3 3 44 5 91 4 61 0 117 -8 190 -28z m1176 -92 c6 -4 29 -12 52
-18 31 -9 43 -18 51 -40 5 -15 33 -47 61 -71 28 -24 51 -47 51 -52 0 -6 -23
-34 -52 -64 -37 -39 -59 -54 -78 -54 -33 0 -43 -9 -30 -26 8 -8 4 -20 -13 -39
-21 -25 -26 -26 -46 -15 -19 10 -25 10 -31 0 -5 -8 -15 -10 -26 -5 -32 13 -42
14 -60 0 -16 -11 -16 -13 6 -25 13 -7 31 -20 40 -29 24 -22 31 -93 14 -127 -8
-15 -13 -28 -12 -30 7 -6 36 -6 66 1 37 9 92 71 92 104 0 12 6 21 15 21 8 0
23 4 33 9 9 5 31 15 47 22 l30 12 -30 8 c-17 3 -22 7 -11 8 16 1 17 7 12 46
-5 30 -4 45 4 45 13 0 60 49 60 61 0 5 -7 9 -15 9 -23 0 -18 24 13 58 34 38
63 52 89 46 12 -3 32 1 44 9 40 24 85 28 102 9 8 -9 29 -55 45 -102 24 -69 28
-94 23 -135 -12 -90 -44 -141 -214 -341 -65 -77 -143 -131 -204 -140 -79 -12
-167 2 -239 38 -86 43 -254 202 -379 358 -102 128 -124 146 -185 156 -49 8
-70 26 -70 60 0 20 -5 24 -27 24 -16 0 -46 -11 -68 -25 -97 -60 -138 -75 -206
-75 -42 0 -72 5 -85 15 -30 23 -45 18 -101 -34 l-52 -49 51 -7 c38 -6 59 -15
78 -35 57 -60 130 -51 276 36 81 48 117 64 145 64 55 0 86 -40 77 -101 -3 -21
-8 -23 -45 -21 -47 4 -122 -25 -199 -78 -80 -54 -99 -60 -179 -60 -84 0 -115
11 -115 40 0 22 -36 34 -135 45 -33 4 -79 13 -103 21 -65 22 -164 19 -192 -6
-29 -26 -33 -25 -24 3 4 12 10 40 13 62 5 33 12 43 39 57 19 9 36 18 39 21 9
10 -28 67 -57 89 -92 67 34 69 192 2 34 -14 77 -24 106 -24 53 0 72 15 124 95
84 132 145 166 308 172 52 2 108 4 124 5 34 1 65 -34 66 -74 0 -49 23 -128 37
-128 20 0 147 66 162 84 8 9 19 16 27 16 7 0 20 7 28 16 19 18 86 31 86 16 0
-5 12 -12 28 -14 15 -3 35 -9 45 -13 13 -6 20 1 33 31 9 22 25 47 37 56 25 20
78 23 95 6 8 -8 15 -8 24 -1 26 21 67 22 93 2z m165 -329 c0 -11 -4 -20 -9
-20 -11 0 -22 26 -14 34 12 12 23 5 23 -14z m-1924 -76 c37 -5 59 -28 68 -70
11 -52 -6 -58 -136 -44 -77 9 -189 10 -355 6 l-243 -7 0 33 c0 68 9 71 196 80
93 4 192 9 219 11 57 3 204 -2 251 -9z m1734 -25 c0 -6 -4 -7 -10 -4 -5 3 -10
11 -10 16 0 6 5 7 10 4 6 -3 10 -11 10 -16z m-605 -56 c18 -18 35 -56 35 -79
0 -10 -12 -14 -43 -14 -62 0 -152 -33 -227 -85 -36 -24 -83 -48 -105 -53 -68
-17 -188 -24 -218 -13 -27 11 -32 6 -21 -23 9 -23 106 -21 218 5 67 16 117 36
191 78 92 51 105 56 163 56 59 0 66 -2 93 -33 16 -18 29 -43 29 -56 0 -23 -4
-24 -78 -27 -73 -4 -87 -8 -212 -71 -159 -79 -196 -90 -311 -92 -73 -1 -90 2
-108 18 -12 11 -21 27 -21 36 0 12 -11 19 -37 24 -108 17 -338 -4 -419 -39
-71 -31 -667 -36 -745 -6 -21 7 -24 15 -24 57 l0 49 80 -2 c44 -2 217 -3 383
-2 293 0 306 1 366 23 143 54 319 73 380 41 34 -18 36 -17 26 11 -13 33 -93
49 -243 49 -74 0 -131 -4 -135 -10 -9 -12 -39 -32 -72 -46 -27 -11 -749 -2
-769 10 -7 5 -8 23 -3 51 l8 45 74 7 c112 11 670 2 683 -11 6 -6 23 -11 38
-11 20 0 32 9 47 34 32 55 124 69 287 46 78 -12 111 -29 126 -67 l10 -26 89 7
c106 8 169 25 213 59 93 70 213 99 252 60z m1165 -545 c0 -16 -3 -19 -11 -11
-6 6 -8 16 -5 22 11 17 16 13 16 -11z m690 -43 c0 -12 -24 -55 -32 -55 -13 0
-9 48 5 53 16 7 27 8 27 2z m-690 -131 c-19 -20 -46 -42 -60 -49 -69 -36 -340
-91 -340 -68 0 8 206 77 307 103 30 7 51 21 69 46 25 32 29 34 43 20 14 -14
12 -19 -19 -52z m-938 -16 c62 -13 116 -47 104 -66 -10 -17 -54 -15 -111 4
-62 22 -189 14 -271 -16 -32 -12 -77 -26 -99 -31 -62 -14 -484 -23 -525 -12
-33 10 -34 11 -10 16 42 9 331 37 385 37 47 0 194 31 310 64 62 18 141 20 217
4z m1033 -48 c-3 -5 -10 -10 -16 -10 -5 0 -9 5 -9 10 0 6 7 10 16 10 8 0 12
-4 9 -10z m85 0 c0 -12 -17 -12 -45 0 -17 7 -15 9 13 9 17 1 32 -3 32 -9z"/>
<path d="M9360 8814 c-6 -14 -10 -29 -10 -33 0 -5 -14 -25 -30 -46 -17 -21
-28 -40 -26 -43 8 -8 85 9 93 21 12 15 4 127 -8 127 -5 0 -14 -12 -19 -26z"/>
<path d="M8450 5716 c0 -9 5 -16 10 -16 6 0 10 4 10 9 0 6 -4 13 -10 16 -5 3
-10 -1 -10 -9z"/>
<path d="M8565 4940 c3 -5 8 -10 11 -10 2 0 4 5 4 10 0 6 -5 10 -11 10 -5 0
-7 -4 -4 -10z"/>
<path d="M8485 4680 c3 -5 10 -10 16 -10 5 0 9 5 9 10 0 6 -7 10 -16 10 -8 0
-12 -4 -9 -10z"/>
<path d="M8532 4670 c14 -22 24 -19 15 5 -4 8 -11 15 -17 15 -6 0 -6 -7 2 -20z"/>
<path d="M8540 4620 c0 -5 5 -10 11 -10 5 0 7 5 4 10 -3 6 -8 10 -11 10 -2 0
-4 -4 -4 -10z"/>
<path d="M7340 2130 c0 -5 5 -10 10 -10 6 0 10 5 10 10 0 6 -4 10 -10 10 -5 0
-10 -4 -10 -10z"/>
<path d="M8290 2081 c0 -6 5 -13 10 -16 6 -3 10 1 10 9 0 9 -4 16 -10 16 -5 0
-10 -4 -10 -9z"/>
<path d="M8340 2058 l1 -33 14 25 c18 32 18 40 0 40 -10 0 -15 -10 -15 -32z"/>
<path d="M8276 1989 c11 -22 18 -28 24 -19 4 7 0 20 -11 31 -27 27 -32 23 -13
-12z"/>
<path d="M8040 1965 c7 -9 15 -13 17 -11 7 7 -7 26 -19 26 -6 0 -6 -6 2 -15z"/>
<path d="M8365 1970 c3 -5 8 -10 11 -10 2 0 4 5 4 10 0 6 -5 10 -11 10 -5 0
-7 -4 -4 -10z"/>
<path d="M8134 1927 c35 -34 56 -40 56 -17 0 12 -37 35 -70 45 -21 7 -19 3 14
-28z"/>
<path d="M8907 1723 c-4 -3 -7 -17 -7 -30 0 -13 -6 -23 -14 -23 -17 0 -24 -27
-16 -59 5 -23 6 -23 23 -7 9 10 17 24 17 31 0 8 9 17 20 20 28 9 29 75 2 75
-10 0 -22 -3 -25 -7z"/>
<path d="M8710 1665 c0 -8 2 -15 4 -15 2 0 6 7 10 15 3 8 1 15 -4 15 -6 0 -10
-7 -10 -15z"/>
<path d="M8789 1598 c-5 -20 -5 -68 0 -62 3 6 22 20 41 33 23 15 28 20 13 16
-14 -4 -23 -2 -23 4 0 9 -29 17 -31 9z"/>
<path d="M8350 1580 c0 -5 7 -10 15 -10 8 0 15 5 15 10 0 6 -7 10 -15 10 -8 0
-15 -4 -15 -10z"/>
<path d="M8640 1511 c0 -6 5 -13 10 -16 6 -3 10 1 10 9 0 9 -4 16 -10 16 -5 0
-10 -4 -10 -9z"/>
<path d="M9210 13056 c0 -2 7 -7 16 -10 8 -3 12 -2 9 4 -6 10 -25 14 -25 6z"/>
<path d="M8779 13021 c-13 -11 -21 -22 -18 -25 3 -3 16 5 29 19 28 30 22 33
-11 6z"/>
<path d="M9251 13036 c10 -9 69 -36 69 -32 0 6 -55 36 -66 36 -4 0 -5 -2 -3
-4z"/>
<path d="M8458 13007 c-7 -7 -29 -19 -48 -26 -71 -27 -105 -45 -116 -60 -9
-12 -15 -13 -26 -3 -12 10 -27 6 -79 -21 -50 -25 -68 -40 -82 -70 -10 -21 -24
-40 -32 -43 -7 -3 -17 -20 -20 -37 -7 -31 -71 -139 -87 -145 -4 -2 -8 -7 -8
-12 0 -5 -17 -35 -39 -67 -21 -32 -48 -77 -59 -100 -25 -47 -44 -151 -29 -156
5 -1 0 -30 -11 -64 -12 -34 -24 -84 -27 -110 -4 -26 -13 -66 -22 -88 -11 -30
-13 -60 -8 -126 6 -76 9 -86 24 -82 16 4 18 -7 20 -107 3 -154 14 -176 30 -59
6 52 26 133 42 181 28 80 29 89 15 104 -19 19 -19 11 0 67 9 26 22 47 30 47
17 0 17 -4 0 44 l-14 40 -21 -41 c-11 -23 -26 -45 -32 -48 -6 -4 -14 -17 -19
-29 l-9 -21 0 22 c-1 34 55 257 78 308 11 25 27 48 35 51 9 3 16 10 16 16 0
17 78 123 127 171 26 26 66 58 87 70 42 23 68 59 27 38 -11 -7 -21 -9 -21 -6
0 3 -12 -1 -27 -8 -16 -8 -39 -18 -53 -22 -28 -8 -13 4 107 87 60 41 61 43 35
48 -25 5 -23 8 36 41 63 36 63 36 40 52 -18 12 -19 16 -7 16 9 1 24 12 32 25
20 29 94 69 119 63 16 -5 18 0 16 34 -3 45 -2 43 -20 26z m-585 -672 c-3 -9
-8 -14 -10 -11 -3 3 -2 9 2 15 9 16 15 13 8 -4z"/>
<path d="M8607 12983 c-4 -3 -7 -15 -7 -27 0 -20 0 -20 15 0 8 10 15 22 15 27
0 9 -14 9 -23 0z"/>
<path d="M9373 12857 c11 -7 52 -33 92 -59 78 -51 124 -65 91 -29 -39 43 -137
101 -169 100 -28 0 -30 -1 -14 -12z"/>
<path d="M8941 12718 c2 -2 17 -14 32 -28 21 -18 26 -20 21 -7 -6 17 -34 37
-50 37 -4 0 -5 -1 -3 -2z"/>
<path d="M9555 12703 c6 -5 43 -34 83 -63 39 -29 72 -57 72 -61 0 -19 -54 -7
-120 26 -38 19 -73 35 -76 35 -13 0 40 -51 76 -73 19 -11 53 -36 74 -54 22
-18 45 -33 51 -33 28 0 79 -35 97 -67 11 -18 22 -32 25 -29 7 7 -8 76 -17 76
-8 0 -22 40 -25 71 -6 50 -16 70 -34 64 -12 -4 -21 2 -29 19 -12 27 -101 81
-152 91 -22 4 -31 4 -25 -2z m215 -150 c0 -13 -3 -13 -15 -3 -8 7 -12 16 -9
21 8 13 24 1 24 -18z"/>
<path d="M8995 12470 c10 -11 20 -20 23 -20 3 0 -3 9 -13 20 -10 11 -20 20
-23 20 -3 0 3 -9 13 -20z"/>
<path d="M8000 12348 c-25 -69 -31 -80 -37 -75 -3 3 -1 20 5 36 17 49 -4 45
-33 -6 -26 -47 -44 -113 -31 -113 4 0 14 16 22 35 8 19 19 35 24 35 16 0 12
-22 -7 -35 -10 -8 -14 -19 -9 -30 6 -17 8 -17 22 3 21 30 75 182 65 182 -5 0
-14 -15 -21 -32z"/>
<path d="M8690 12297 c0 -2 26 -25 58 -52 31 -27 48 -38 37 -25 -41 49 -95 93
-95 77z"/>
<path d="M8160 12229 c0 -5 5 -7 10 -4 6 3 10 8 10 11 0 2 -4 4 -10 4 -5 0
-10 -5 -10 -11z"/>
<path d="M9657 12229 c7 -7 15 -10 18 -7 3 3 -2 9 -12 12 -14 6 -15 5 -6 -5z"/>
<path d="M10025 12230 c-16 -27 55 -38 130 -21 26 6 27 8 10 13 -47 15 -133
20 -140 8z"/>
<path d="M8077 12195 c-13 -14 -27 -34 -30 -45 -9 -34 19 -22 57 25 32 38 35
45 18 45 -11 0 -31 -11 -45 -25z"/>
<path d="M7883 12153 c-7 -15 -13 -34 -13 -42 1 -9 7 -1 16 18 17 41 15 62 -3
24z"/>
<path d="M9990 12131 c-5 -11 -9 -70 -8 -132 1 -77 -3 -114 -11 -117 -6 -2
-11 -10 -11 -18 0 -11 23 -14 118 -14 64 -1 151 -5 192 -10 41 -5 165 -19 275
-30 246 -26 335 -46 454 -103 l93 -45 -7 26 c-10 44 -52 129 -80 166 -27 35
-274 196 -301 196 -7 0 -38 9 -69 21 -42 16 -59 18 -69 10 -10 -9 -38 -5 -112
15 -118 31 -270 53 -376 54 -66 0 -79 -3 -88 -19z"/>
<path d="M8103 12130 c-24 -10 -43 -39 -36 -56 2 -6 -8 -19 -22 -28 -20 -13
-25 -24 -24 -59 1 -39 1 -40 10 -15 10 25 77 68 107 68 6 0 9 7 5 15 -3 9 3
22 13 31 18 14 17 15 -11 11 -16 -2 -39 -8 -50 -12 -16 -6 -14 -1 9 23 32 34
32 35 -1 22z"/>
<path d="M7947 12123 c-4 -3 -7 -13 -7 -22 1 -13 3 -13 11 2 11 19 8 33 -4 20z"/>
<path d="M9041 11917 c-2 -23 85 -170 115 -197 19 -16 34 -36 34 -43 0 -22 71
-107 90 -107 12 0 20 -11 24 -32 7 -34 23 -58 38 -58 21 0 -2 57 -51 132 -28
42 -60 83 -72 91 -15 11 -17 16 -7 20 8 3 -10 28 -52 68 -36 35 -77 80 -92 99
-15 19 -27 31 -27 27z"/>
<path d="M8681 11753 c0 -4 4 -17 9 -28 8 -19 9 -19 9 2 1 12 -3 25 -9 28 -5
3 -10 3 -9 -2z"/>
<path d="M7915 11707 c-10 -38 -1 -208 13 -233 11 -18 11 -18 12 3 0 12 5 23
11 25 8 3 7 11 0 28 -6 14 -15 66 -19 115 -7 71 -10 84 -17 62z"/>
<path d="M9840 11706 c-16 -21 9 -26 123 -26 56 0 156 -5 222 -9 66 -5 179
-12 250 -15 295 -14 432 -28 503 -53 11 -4 14 -3 7 4 -20 20 -245 63 -332 63
-24 0 -73 4 -110 10 -104 15 -446 39 -555 39 -68 0 -100 -4 -108 -13z"/>
<path d="M8620 11678 c0 -22 49 -118 59 -118 6 0 7 7 3 18 -48 108 -62 131
-62 100z"/>
<path d="M8701 11683 c-1 -18 19 -67 25 -61 3 3 -2 21 -10 39 -8 19 -15 29
-15 22z"/>
<path d="M8766 11667 c3 -10 9 -15 12 -12 3 3 0 11 -7 18 -10 9 -11 8 -5 -6z"/>
<path d="M8840 11600 c0 -5 5 -10 11 -10 5 0 7 5 4 10 -3 6 -8 10 -11 10 -2 0
-4 -4 -4 -10z"/>
<path d="M8780 11573 c0 -5 7 -18 15 -29 12 -16 14 -16 15 -3 0 9 -7 22 -15
29 -8 7 -15 8 -15 3z"/>
<path d="M11047 11558 c83 -40 209 -308 258 -548 8 -40 13 -54 14 -35 2 48
-46 228 -88 336 -39 99 -132 240 -168 253 -26 10 -39 5 -16 -6z"/>
<path d="M9000 11556 c0 -11 99 -111 104 -105 10 9 -41 73 -73 92 -17 10 -31
16 -31 13z"/>
<path d="M8650 11524 c0 -31 79 -181 106 -203 21 -17 39 -21 73 -19 26 2 44 7
41 13 -2 6 -10 9 -17 7 -11 -2 -79 73 -77 87 0 3 -8 15 -18 25 -10 11 -18 25
-18 31 0 15 -35 47 -43 39 -3 -3 -12 3 -19 15 -15 25 -28 27 -28 5z"/>
<path d="M8850 11483 c0 -13 29 -38 35 -31 3 3 -4 13 -15 23 -11 10 -20 13
-20 8z"/>
<path d="M8620 11432 c0 -19 36 -86 54 -101 22 -19 20 -9 -10 46 -31 56 -44
72 -44 55z"/>
<path d="M7920 11319 c0 -8 7 -24 15 -35 18 -24 19 -7 0 26 -9 16 -14 19 -15
9z"/>
<path d="M8600 11141 c0 -16 37 -88 50 -96 15 -9 12 0 -16 52 -32 57 -34 60
-34 44z"/>
<path d="M1870 10861 c-19 -4 -53 -17 -75 -29 -22 -12 -48 -22 -57 -22 -10 0
-18 -7 -18 -16 0 -37 -219 -93 -385 -99 -27 -1 -66 -9 -85 -17 -87 -39 -504
-299 -588 -368 -115 -93 -214 -182 -290 -260 -89 -91 -225 -259 -263 -325 -13
-22 -43 -67 -66 -100 l-43 -59 1 -451 c1 -320 4 -437 11 -405 11 50 55 104
103 125 17 7 70 47 120 89 169 144 175 150 337 261 40 28 90 70 113 94 85 94
133 137 187 169 80 48 100 39 46 -19 -97 -105 -170 -422 -139 -601 12 -72 30
-115 70 -168 14 -19 36 -50 49 -69 33 -48 104 -121 151 -156 42 -31 51 -45 28
-45 -14 0 -106 71 -107 82 0 15 -44 58 -57 58 -7 0 -13 11 -13 25 0 13 -6 28
-13 32 -17 10 -97 119 -97 131 0 5 -6 15 -13 21 -11 8 -17 5 -26 -17 l-13 -27
-19 40 c-28 58 -56 152 -64 218 -4 31 -11 60 -16 63 -22 13 -3 -203 25 -288
11 -35 13 -76 6 -218 -5 -96 -11 -240 -14 -320 -7 -193 -41 -473 -86 -710 -22
-116 -39 -233 -46 -314 -7 -84 -6 -85 17 -90 70 -13 263 -28 492 -36 404 -16
572 -48 675 -129 57 -46 85 -61 109 -61 10 0 42 -23 72 -50 54 -50 93 -122
110 -200 4 -19 19 -64 33 -100 14 -36 28 -73 32 -82 3 -10 10 -18 15 -18 6 0
8 -7 5 -15 -5 -11 1 -15 25 -15 17 0 31 5 31 10 0 6 7 10 16 10 13 0 14 3 4
15 -10 11 -9 18 4 30 9 9 20 13 26 10 6 -3 13 1 16 10 5 12 14 14 40 9 21 -4
40 -2 48 6 9 7 50 11 108 11 90 -1 229 11 295 24 33 7 61 31 50 42 -7 6 -169
17 -477 32 -128 5 -207 14 -230 23 l-35 14 28 19 c28 18 28 18 43 -4 18 -25
43 -26 120 -6 95 25 283 30 406 11 58 -8 117 -20 130 -25 12 -5 39 -12 58 -16
47 -8 143 -75 150 -106 10 -41 0 -78 -24 -85 -11 -4 -23 -6 -25 -5 -2 2 -8 -3
-12 -11 -5 -10 -36 -13 -126 -12 -66 1 -124 -3 -130 -8 -7 -6 -13 -21 -13 -34
0 -25 5 -26 72 -8 9 3 19 0 23 -6 4 -6 15 -8 25 -5 11 3 35 3 54 0 29 -6 37
-13 46 -41 11 -31 15 -34 53 -35 23 -1 52 0 65 1 16 1 22 -4 22 -18 0 -19 -5
-19 -85 -14 -56 3 -89 1 -98 -7 -11 -9 -17 -8 -26 2 -8 11 -24 12 -68 5 -39
-6 -59 -6 -61 1 -2 6 -16 11 -30 10 -16 0 -21 -3 -12 -6 8 -3 23 -14 34 -25
11 -10 26 -18 33 -18 7 0 13 -4 13 -9 0 -5 8 -11 19 -14 10 -2 24 -18 32 -36
8 -17 21 -31 31 -31 33 0 49 -11 37 -26 -9 -11 -7 -14 11 -14 16 0 20 4 16 16
-4 10 -1 14 6 12 7 -3 14 -14 16 -26 2 -16 -2 -22 -15 -22 -18 0 -152 26 -185
36 -13 4 -15 0 -11 -16 3 -12 13 -24 22 -27 38 -12 81 -35 81 -42 0 -4 21 -15
48 -23 35 -12 48 -21 50 -38 3 -20 0 -22 -25 -17 -46 9 -118 30 -123 36 -5 7
-74 41 -130 65 -159 67 -225 98 -262 124 -93 63 -144 92 -164 92 -8 0 -14 7
-14 15 0 8 -4 15 -9 15 -14 0 -22 -47 -12 -73 12 -31 31 -45 24 -17 -3 11 -3
27 1 35 5 14 9 13 29 -7 13 -13 34 -38 46 -56 18 -25 26 -30 36 -22 8 6 16 7
19 2 3 -5 26 -15 51 -22 24 -7 50 -18 56 -26 5 -7 23 -15 38 -19 15 -3 42 -19
60 -35 18 -17 36 -30 40 -30 11 0 106 -44 151 -70 19 -11 42 -20 51 -20 8 0
19 -3 23 -7 4 -5 11 -8 14 -9 4 0 25 -8 47 -18 22 -10 51 -18 65 -17 14 0 73
1 132 2 85 2 108 5 113 17 5 13 8 12 26 -4 13 -11 40 -19 78 -22 81 -6 92 7
86 101 -7 111 -20 198 -32 205 -5 4 -13 19 -16 33 -8 30 -66 59 -117 59 -23 0
-30 4 -30 20 0 16 7 20 33 20 53 0 64 13 49 54 -7 19 -11 52 -8 73 3 21 3 29
-1 18 -4 -15 -10 -7 -24 35 -10 30 -19 67 -19 81 0 14 -4 39 -9 55 -16 49 -22
101 -11 84 8 -13 10 -12 10 3 0 9 -4 17 -10 17 -5 0 -7 7 -3 15 3 9 1 15 -6
13 -19 -5 -65 130 -55 157 3 7 -33 51 -80 97 -63 62 -86 92 -86 110 0 14 -10
50 -23 79 -13 30 -29 81 -36 114 -7 33 -17 73 -22 89 -16 52 -23 163 -10 170
20 13 12 26 -15 26 -22 0 -24 2 -14 15 16 20 5 45 -20 45 -11 0 -20 4 -20 10
0 16 51 24 84 12 17 -6 50 -14 73 -18 40 -6 42 -8 39 -35 -3 -24 1 -30 20 -35
54 -14 192 8 344 55 36 12 124 38 196 59 134 40 186 61 152 62 -10 0 -18 4
-18 9 0 13 55 51 74 51 21 0 20 -26 -1 -39 -10 -6 -13 -11 -6 -11 13 0 51 16
158 66 39 19 97 43 130 54 l60 21 22 -28 c28 -35 53 -106 53 -151 0 -19 7 -47
17 -62 15 -26 15 -30 0 -44 -22 -22 -23 -21 -20 22 l2 37 -9 -39 c-7 -25 -7
-43 0 -50 5 -7 6 -24 1 -42 -7 -25 -4 -33 23 -56 51 -46 89 -33 66 23 -7 16
-10 32 -7 36 4 3 10 -3 14 -13 3 -10 16 -35 28 -54 12 -19 32 -61 44 -93 51
-137 186 -284 321 -350 l85 -42 125 1 c128 0 157 7 218 50 21 15 22 15 23 -2
1 -11 5 -3 9 16 4 19 13 56 21 82 11 39 11 68 0 170 -8 68 -20 143 -27 168
-10 31 -14 101 -14 226 -1 100 0 185 1 190 4 26 -3 37 -11 16 -9 -22 -36 -39
-46 -29 -3 3 2 29 11 59 9 29 20 89 26 132 5 44 15 88 20 98 10 18 18 106 20
218 1 70 2 67 -17 74 -24 9 -52 -11 -72 -51 -26 -55 -40 -59 -90 -27 l-44 29
25 21 c20 17 25 33 29 81 3 49 10 68 35 100 30 37 36 40 114 52 55 8 99 22
135 42 35 20 54 26 59 19 10 -16 85 -9 120 12 17 10 39 18 49 18 10 0 24 7 31
16 9 13 16 14 33 5 26 -14 89 -14 97 -1 9 14 -56 40 -99 40 -48 0 -76 38 -56
75 17 31 21 31 50 0 13 -14 31 -25 40 -25 9 0 20 -4 25 -9 14 -14 95 -31 95
-20 0 5 20 18 45 29 26 12 51 32 59 49 9 16 21 31 29 34 7 3 19 24 27 48 7 24
17 49 21 54 7 11 20 102 21 149 1 17 -6 33 -16 38 -20 11 -21 34 -1 41 11 5
13 20 10 64 -4 71 -14 113 -26 113 -5 0 -9 10 -9 22 0 12 -7 29 -16 39 -14 16
-14 18 5 24 26 8 26 20 2 46 -14 16 -21 43 -26 105 l-7 84 -26 -25 -26 -26
-18 23 c-10 13 -18 26 -18 31 0 4 -7 7 -16 7 -11 0 -14 -5 -10 -16 3 -9 6 -25
6 -35 0 -12 4 -17 11 -13 8 4 9 0 4 -15 -4 -15 -2 -21 8 -21 14 0 27 -20 27
-42 0 -6 -9 -8 -20 -5 -14 4 -24 -2 -31 -16 -17 -32 -18 -32 -33 -11 -22 30
-30 10 -14 -38 21 -66 9 -110 -22 -73 -10 13 -15 12 -35 -3 -18 -13 -22 -24
-18 -44 4 -21 2 -28 -10 -28 -8 0 -17 7 -21 15 -3 8 -15 15 -28 15 -20 0 -20
-1 -5 -12 12 -9 18 -33 21 -83 2 -38 2 -61 -1 -50 -3 11 -11 24 -19 28 -8 4
-14 19 -14 32 0 30 -11 32 -35 5 -12 -13 -25 -18 -37 -14 -10 3 -34 0 -54 -6
-19 -7 -38 -10 -41 -7 -3 3 -5 28 -5 56 1 79 -27 121 -80 121 -24 0 -28 -4
-28 -30 0 -39 -11 -38 -59 8 -27 26 -43 52 -51 84 -9 33 -25 59 -61 94 -27 26
-49 55 -49 62 0 8 -20 33 -45 56 -35 34 -45 49 -45 75 0 41 12 33 40 -24 12
-25 27 -45 34 -45 7 0 30 -16 50 -36 39 -38 55 -40 37 -6 -15 28 -14 42 4 42
24 0 17 27 -12 49 l-28 20 25 1 c28 1 60 21 60 39 0 6 16 11 36 11 25 0 41 7
54 22 14 17 30 23 64 24 25 1 46 -2 46 -7 0 -4 14 -21 31 -38 33 -34 30 -56
-7 -47 -28 7 -30 0 -7 -26 20 -22 10 -36 -12 -18 -20 17 -31 5 -39 -41 -6 -32
-3 -39 21 -54 25 -17 26 -18 8 -31 -10 -8 -13 -14 -7 -14 7 0 12 -9 12 -21 0
-13 -6 -20 -17 -18 -49 4 -59 -20 -13 -31 13 -3 25 -12 26 -20 5 -25 37 -135
41 -139 1 -2 11 3 21 12 30 27 49 19 43 -17 -1 -5 1 -16 4 -25 4 -11 12 -4 25
27 11 23 17 49 14 56 -3 8 0 17 7 22 9 5 10 2 6 -9 -7 -20 -6 -20 27 -7 19 7
26 17 26 35 0 16 -4 24 -11 20 -17 -11 -49 26 -49 57 0 36 17 71 31 62 6 -3
16 2 24 12 13 18 14 17 20 -9 8 -32 22 -36 27 -7 4 28 22 27 28 -2 3 -13 11
-23 18 -22 35 3 40 5 45 18 3 8 1 31 -4 51 l-11 37 -19 -21 c-11 -12 -24 -21
-30 -21 -14 0 -62 32 -72 47 -4 7 -19 13 -32 13 -70 0 -102 48 -65 98 l21 29
-22 37 c-12 20 -19 39 -17 42 9 8 38 -8 38 -21 0 -8 9 -17 20 -20 24 -7 26
-33 5 -61 -8 -10 -15 -22 -15 -26 0 -8 87 -4 96 5 3 3 16 2 29 -3 20 -8 25 -5
36 23 11 29 13 30 16 10 3 -13 8 -23 11 -23 17 0 52 33 52 48 0 37 -28 93 -68
136 -23 24 -44 57 -48 73 -3 15 -13 39 -22 53 -12 21 -9 20 20 -7 19 -18 41
-33 50 -33 9 0 19 -12 23 -27 3 -15 13 -35 21 -43 8 -8 21 -24 29 -35 12 -18
12 -14 3 25 -11 44 -54 120 -68 120 -3 0 -13 23 -20 51 -15 54 -36 75 -82 81
-18 2 -32 -3 -41 -16 -11 -14 -20 -17 -46 -11 -47 10 -35 31 32 55 23 8 27 14
22 33 -4 12 -17 33 -29 45 -21 24 -96 68 -96 57 0 -4 -12 2 -27 13 -21 15 -49
20 -117 23 -87 4 -89 3 -93 -20 -2 -17 1 -22 11 -18 20 8 33 -32 15 -44 -9 -5
-17 -2 -22 7 -7 12 -19 14 -52 10 -40 -7 -43 -6 -48 21 -9 43 -29 62 -70 67
-34 4 -107 -16 -107 -30 0 -3 15 -2 34 2 35 6 113 -13 101 -24 -4 -4 -50 -7
-103 -7 -54 0 -110 -4 -127 -9 -29 -7 -29 -7 -6 6 14 7 26 18 28 24 5 15 -52
11 -72 -6 -8 -7 -30 -15 -48 -19 -18 -4 -36 -15 -41 -27 -9 -20 -55 -48 -65
-39 -2 3 1 11 7 17 20 20 14 29 -15 22 -52 -11 -88 -33 -105 -62 -10 -16 -39
-40 -65 -53 -26 -13 -54 -30 -61 -37 -8 -7 -23 -10 -33 -7 -15 5 -19 1 -19
-17 0 -37 -37 -71 -69 -63 -48 12 -66 46 -40 72 9 9 6 13 -13 18 -14 4 -39 22
-54 41 -16 19 -38 34 -50 34 -12 0 -41 17 -65 39 -25 21 -80 60 -123 86 -43
26 -100 62 -126 79 -136 87 -140 89 -209 93 -49 2 -70 8 -81 21 -19 23 -147
68 -218 77 -44 5 -57 2 -79 -15 -34 -26 -54 -25 -149 6 -65 22 -107 28 -239
34 -127 6 -171 12 -213 29 -67 27 -109 26 -238 -1 -84 -17 -115 -20 -161 -12
-52 8 -60 12 -73 41 -16 35 -30 38 -100 24z m1307 -394 c160 -1 236 -6 244
-14 27 -27 -32 -36 -280 -40 -274 -4 -385 -18 -520 -63 -49 -17 -95 -30 -102
-30 -8 0 -96 -41 -197 -92 -150 -76 -185 -90 -192 -78 -7 11 -3 21 13 37 35
34 352 188 467 226 121 41 266 69 315 60 11 -2 124 -5 252 -6z m1973 -16 c0
-11 -31 -24 -39 -16 -3 3 1 10 9 15 19 12 30 12 30 1z m-560 -36 c0 -8 9 -15
20 -15 26 0 26 -16 1 -23 -23 -6 -61 18 -61 39 0 8 9 14 20 14 11 0 20 -7 20
-15z m455 -25 c3 -5 1 -10 -4 -10 -6 0 -11 5 -11 10 0 6 2 10 4 10 3 0 8 -4
11 -10z m125 -15 c0 -18 7 -26 25 -31 31 -8 32 -30 3 -40 -23 -8 -41 -7 -68 2
-11 5 -10 8 8 15 33 13 27 26 -11 21 -36 -4 -69 20 -46 34 11 6 58 20 82 23 4
1 7 -10 7 -24z m-1236 -41 c24 -9 19 -34 -7 -34 -23 0 -47 17 -47 32 0 9 32
11 54 2z m1266 -73 c5 -11 10 -22 10 -25 0 -8 -64 -8 -84 0 -26 10 -18 24 14
24 17 0 30 5 30 10 0 17 19 11 30 -9z m-598 -67 c12 -7 10 -28 -4 -42 -8 -8
-15 -8 -24 -1 -7 6 -29 11 -48 12 -37 2 -48 21 -25 44 10 10 78 1 101 -13z
m702 16 c14 -5 26 -16 26 -24 0 -7 7 -19 15 -26 8 -7 15 -24 15 -39 0 -18 6
-27 18 -29 9 -1 28 -3 42 -5 67 -8 86 -28 53 -58 -10 -9 -23 -24 -28 -34 -10
-16 -14 -16 -35 -5 -14 7 -38 24 -53 36 -39 33 -57 31 -57 -6 0 -37 -12 -38
-38 -3 -14 19 -28 27 -46 25 -21 -1 -26 3 -26 20 0 12 3 18 6 15 12 -11 43 13
38 28 -4 9 0 15 8 15 8 0 20 11 26 25 6 14 17 25 24 25 8 0 9 3 3 8 -5 4 -16
15 -24 25 -15 19 -5 22 33 7z m-109 -30 c3 -5 1 -10 -4 -10 -6 0 -11 5 -11 10
0 6 2 10 4 10 3 0 8 -4 11 -10z m-5 -62 c0 -5 -8 -7 -17 -4 -10 3 -30 8 -45
12 -16 3 -28 12 -28 19 0 22 53 23 73 2 9 -11 17 -24 17 -29z m-650 -8 c-8 -5
-24 -10 -35 -10 -17 0 -17 2 -5 10 8 5 24 10 35 10 17 0 17 -2 5 -10z m-532
-6 c28 -8 28 -19 -2 -59 -13 -17 -36 -60 -51 -96 -15 -35 -37 -86 -50 -114
-12 -27 -28 -67 -36 -87 -16 -47 -54 -88 -80 -88 -11 0 -42 11 -69 25 l-49 25
13 45 c19 61 67 145 133 232 56 74 86 100 132 113 34 11 33 11 59 4z m622 -43
c0 -12 -41 -63 -47 -57 -7 7 26 66 37 66 6 0 10 -4 10 -9z m477 -22 c8 -8 17
-8 31 0 28 15 36 -2 11 -25 -15 -14 -22 -15 -28 -6 -6 9 -15 10 -34 3 -31 -12
-45 2 -27 24 15 18 32 19 47 4z m-562 -29 c-3 -5 -13 -10 -21 -10 -8 0 -12 5
-9 10 3 6 13 10 21 10 8 0 12 -4 9 -10z m505 -16 c0 -12 -4 -12 -20 -4 -11 6
-18 15 -15 20 8 13 35 0 35 -16z m-1500 3 c29 -15 31 -53 6 -92 -14 -22 -20
-22 -243 -28 -125 -3 -246 -11 -268 -17 -42 -12 -127 -30 -263 -54 -48 -9
-121 -32 -175 -57 -50 -23 -121 -50 -157 -60 -79 -23 -179 -64 -240 -99 -81
-47 -232 -109 -315 -131 -27 -7 -83 -33 -123 -58 -41 -25 -97 -58 -124 -74
-28 -15 -68 -43 -89 -61 -20 -19 -69 -55 -107 -80 -39 -26 -75 -53 -82 -61
-31 -37 -80 1 -80 62 0 36 -6 31 160 138 233 149 396 240 485 271 133 47 352
147 399 182 6 5 27 15 46 22 19 7 83 35 141 61 123 56 437 131 594 142 140 10
411 6 435 -6z m1260 -13 c0 -8 -4 -12 -10 -9 -5 3 -10 13 -10 21 0 8 5 12 10
9 6 -3 10 -13 10 -21z m110 -11 c20 -26 21 -28 4 -32 -18 -3 -44 23 -44 46 0
21 17 15 40 -14z m230 5 c0 -10 -36 -29 -43 -22 -3 3 -4 11 -1 18 5 13 44 17
44 4z m-404 -27 c15 13 20 -2 29 -101 3 -36 9 -83 12 -104 4 -28 3 -37 -5 -32
-7 4 -12 18 -12 30 0 13 -7 29 -15 36 -17 14 -20 61 -5 76 6 6 1 22 -15 46
-26 39 -35 72 -13 50 8 -8 15 -8 24 -1z m-86 -45 c0 -20 -46 -76 -63 -76 -10
0 -9 33 4 67 7 23 16 31 35 31 18 0 24 -6 24 -22z m-130 -25 c0 -22 5 -41 12
-43 7 -3 5 -13 -7 -31 -29 -45 -43 -34 -42 36 0 70 2 77 23 77 10 0 14 -12 14
-39z m194 -10 c7 -11 -82 -106 -91 -97 -10 10 61 105 79 106 4 0 9 -4 12 -9z
m-1215 -47 c20 -6 22 -11 17 -43 -3 -21 -16 -45 -32 -59 -24 -21 -31 -22 -117
-15 -132 11 -191 8 -287 -15 -47 -11 -125 -30 -175 -42 -107 -26 -530 -165
-560 -184 -11 -7 -38 -19 -60 -26 -22 -7 -79 -32 -126 -56 -48 -23 -122 -54
-165 -68 -42 -14 -107 -43 -143 -65 -36 -21 -86 -49 -111 -61 -25 -12 -63 -37
-84 -54 -22 -17 -54 -40 -72 -51 -18 -11 -65 -42 -105 -69 l-73 -48 -28 33
c-15 19 -28 40 -28 47 0 7 34 34 76 60 41 26 138 89 215 140 156 103 304 181
394 206 33 10 92 35 132 57 39 21 95 48 124 59 29 12 64 29 78 39 14 11 49 26
78 34 29 9 92 31 140 51 98 39 347 99 563 137 50 9 312 3 349 -7z m1749 -72
c2 -7 -3 -12 -12 -12 -9 0 -16 7 -16 16 0 17 22 14 28 -4z m32 -77 c0 -8 -4
-15 -9 -15 -5 0 -14 7 -21 15 -10 13 -9 15 9 15 12 0 21 -6 21 -15z m-1624
-12 c-3 -3 1 -15 9 -27 34 -47 -1 -79 -39 -37 -17 19 -17 21 0 50 10 16 22 27
27 24 4 -3 6 -7 3 -10z m-327 -8 c78 -5 114 -12 118 -21 9 -23 -46 -102 -75
-109 -15 -3 -80 1 -144 10 l-117 15 -37 -25 c-20 -14 -45 -25 -56 -25 -10 0
-60 -16 -111 -36 -51 -19 -125 -42 -166 -50 -40 -8 -118 -32 -172 -54 -55 -22
-110 -40 -123 -40 -13 0 -63 -20 -112 -45 -49 -25 -92 -45 -97 -45 -4 0 -51
-21 -105 -46 -137 -66 -153 -69 -175 -42 l-19 23 5 -28 c3 -21 -3 -33 -27 -55
-18 -15 -46 -34 -64 -41 -28 -12 -34 -11 -58 8 -29 23 -44 20 -44 -9 0 -10 -5
-22 -10 -25 -6 -4 -8 -11 -5 -16 6 -9 -14 -14 -48 -11 -11 1 -21 -6 -24 -19
-5 -18 -11 -19 -44 -14 -35 6 -39 5 -39 -14 0 -13 -9 -25 -21 -29 -28 -11 -91
-2 -86 12 2 6 50 39 108 73 57 34 142 86 189 116 47 29 139 81 205 114 66 34
149 77 184 98 93 52 497 205 544 205 12 0 54 12 92 25 39 14 111 34 160 46 50
11 104 28 120 37 29 16 108 32 131 27 6 -2 61 -6 123 -10z m1566 -5 c3 -5 2
-10 -4 -10 -5 0 -13 5 -16 10 -3 6 -2 10 4 10 5 0 13 -4 16 -10z m410 -70 c10
-43 -2 -72 -28 -68 -17 2 -21 9 -19 29 1 15 -5 32 -14 40 -14 11 -13 14 8 30
27 21 44 11 53 -31z m-1307 20 c30 -18 37 -34 32 -70 -4 -32 -20 -32 -67 -1
-43 29 -52 31 -100 25 -45 -5 -53 -4 -53 10 0 22 73 56 120 56 19 0 50 -9 68
-20z m882 -10 c0 -5 -9 -10 -20 -10 -11 0 -20 5 -20 10 0 6 9 10 20 10 11 0
20 -4 20 -10z m-218 -34 c15 -22 8 -55 -14 -67 -13 -7 -36 -23 -52 -36 -33
-27 -48 -23 -22 6 25 28 11 45 -19 25 -45 -29 -47 -4 -4 47 38 46 44 49 73 43
17 -3 34 -12 38 -18z m196 -45 c3 -8 -1 -12 -9 -9 -7 2 -15 10 -17 17 -3 8 1
12 9 9 7 -2 15 -10 17 -17z m32 -52 c0 -6 -4 -7 -10 -4 -5 3 -10 11 -10 16 0
6 5 7 10 4 6 -3 10 -11 10 -16z m-120 -21 c0 -19 -2 -20 -10 -8 -13 19 -13 30
0 30 6 0 10 -10 10 -22z m-1267 -49 l39 -10 -6 -47 c-4 -26 -9 -96 -12 -157
-5 -107 -5 -112 25 -178 44 -96 49 -141 19 -197 -13 -25 -30 -45 -38 -45 -19
0 -94 150 -113 225 l-14 55 -59 7 c-106 13 -246 46 -255 60 -5 7 -9 22 -9 34
0 11 -6 29 -14 40 -14 19 -15 19 -38 -3 -24 -23 -58 -31 -58 -14 0 5 20 27 45
50 25 23 45 46 45 51 0 24 -24 16 -96 -33 -101 -67 -201 -166 -245 -242 -40
-69 -82 -90 -154 -79 -75 11 -76 18 -12 80 31 31 57 59 57 63 0 4 -27 6 -60 5
-61 -2 -72 4 -45 26 31 26 18 40 -30 33 -66 -9 -57 26 10 43 17 4 48 16 70 27
22 11 71 26 110 34 107 21 163 42 229 85 33 21 83 45 112 54 73 21 234 33 292
22 42 -9 53 -7 83 11 34 22 39 22 122 0z m1371 -9 c6 -6 2 -17 -12 -30 -12
-12 -22 -16 -22 -9 0 6 -7 8 -15 5 -8 -3 -22 -9 -30 -12 -19 -8 -21 30 -2 52
13 15 63 12 81 -6z m-259 0 c-3 -5 -14 -10 -23 -9 -14 0 -13 2 3 9 27 11 27
11 20 0z m755 -116 c0 -12 -7 -27 -15 -34 -8 -7 -15 -17 -15 -22 0 -6 -7 -25
-16 -44 -9 -19 -14 -37 -11 -40 8 -9 48 29 58 55 13 34 18 23 10 -26 -7 -49
-38 -77 -93 -86 -42 -6 -46 1 -22 38 9 14 14 32 10 40 -8 21 -36 7 -36 -19 0
-12 -10 -30 -21 -40 -21 -18 -22 -18 -17 2 8 31 -35 39 -69 12 -14 -11 -37
-20 -52 -20 l-26 1 23 18 c27 23 29 35 3 21 -27 -14 -30 -13 -24 11 3 12 18
25 34 31 15 5 35 20 44 34 8 13 25 24 38 24 14 0 28 11 39 30 19 33 38 39 39
13 0 -13 3 -12 10 6 8 19 14 22 38 18 20 -4 33 -1 42 9 15 18 29 2 29 -32z
m122 -44 c-2 -3 -7 0 -9 7 -2 7 -11 9 -19 6 -15 -6 -17 8 -7 47 6 23 7 23 23
-15 10 -22 15 -42 12 -45z m-372 47 c0 -25 -46 -58 -81 -58 -129 0 -168 19
-92 44 42 14 49 14 59 2 15 -20 24 -19 54 5 29 23 60 26 60 7z m391 -134 c-9
-15 -10 -13 -11 13 0 17 3 34 8 38 11 12 14 -32 3 -51z m-105 -131 c-12 -12
-18 8 -10 35 l8 28 4 -28 c2 -16 1 -31 -2 -35z m-3040 -49 c-10 -10 -19 5 -10
18 6 11 8 11 12 0 2 -7 1 -15 -2 -18z m1255 -175 c20 -41 20 -42 1 -22 -19 20
-39 64 -28 64 3 0 15 -19 27 -42z m-957 -256 c6 -10 -17 -218 -25 -227 -4 -3
-23 5 -44 19 -21 14 -41 23 -46 20 -14 -8 0 -24 20 -24 10 0 24 -7 31 -16 8
-8 28 -21 46 -29 26 -11 31 -18 27 -35 -8 -30 -49 -48 -74 -32 -10 7 -25 12
-32 12 -7 0 -24 11 -37 25 -13 14 -31 25 -41 25 -10 0 -27 12 -38 27 -19 23
-20 29 -7 47 7 12 26 23 41 26 l27 5 -27 23 c-20 17 -24 28 -19 45 10 33 34
67 56 78 27 14 33 -10 21 -87 -5 -35 -6 -64 -2 -64 13 0 19 31 19 94 0 35 3
66 7 69 9 10 91 9 97 -1z m-1739 -92 c13 -6 15 -9 5 -9 -8 0 -22 4 -30 9 -18
12 -2 12 25 0z m1705 -552 c44 2 140 -31 140 -49 0 -12 -50 -43 -106 -67 -34
-14 -70 -21 -110 -20 -44 1 -77 -6 -128 -27 -100 -40 -149 -44 -203 -14 -23
13 -43 26 -43 29 0 3 33 17 73 33 57 22 88 27 153 27 58 0 85 4 93 14 14 17 8
21 -41 30 -47 8 -48 17 -5 39 24 12 44 15 82 9 28 -4 70 -6 95 -4z m459 -160
c106 -54 93 -95 -39 -118 -43 -8 -77 -9 -100 -3 l-35 9 38 18 c68 33 38 73
-46 61 -84 -12 -129 -10 -171 8 -47 21 -40 32 30 52 33 10 83 13 153 11 94 -4
110 -7 170 -38z m-571 -88 c41 -18 49 -40 16 -40 -8 0 -17 -7 -20 -15 -4 -8
-10 -12 -16 -9 -5 3 -32 7 -59 8 -82 5 -90 36 -16 63 43 16 46 15 95 -7z m492
-1305 c0 -18 -5 -25 -20 -25 -15 0 -20 7 -20 25 0 18 5 25 20 25 15 0 20 -7
20 -25z m-145 -148 c-4 -8 -21 -11 -53 -8 -39 4 -43 5 -22 12 42 12 80 10 75
-4z"/>
<path d="M5435 10050 c3 -5 8 -10 11 -10 2 0 4 5 4 10 0 6 -5 10 -11 10 -5 0
-7 -4 -4 -10z"/>
<path d="M1990 9149 c0 -5 5 -7 10 -4 6 3 10 8 10 11 0 2 -4 4 -10 4 -5 0 -10
-5 -10 -11z"/>
<path d="M3460 9030 c0 -5 9 -10 21 -10 11 0 17 5 14 10 -3 6 -13 10 -21 10
-8 0 -14 -4 -14 -10z"/>
<path d="M5226 9178 c-20 -28 -3 -39 22 -14 12 11 13 19 5 27 -8 8 -15 4 -27
-13z"/>
<path d="M5145 9170 c-10 -11 -16 -22 -13 -25 3 -3 13 4 23 15 10 11 16 22 13
25 -3 3 -13 -4 -23 -15z"/>
<path d="M2475 8320 c3 -5 10 -10 16 -10 5 0 9 5 9 10 0 6 -7 10 -16 10 -8 0
-12 -4 -9 -10z"/>
<path d="M2560 8270 c0 -5 5 -10 10 -10 6 0 10 5 10 10 0 6 -4 10 -10 10 -5 0
-10 -4 -10 -10z"/>
<path d="M4980 10510 c0 -6 7 -13 15 -17 24 -9 27 1 5 15 -13 8 -20 8 -20 2z"/>
<path d="M5621 9968 c0 -7 4 -22 9 -33 8 -18 9 -17 9 7 1 15 -3 30 -9 33 -5 3
-10 0 -9 -7z"/>
<path d="M5510 9815 c0 -8 4 -15 10 -15 5 0 7 7 4 15 -4 8 -8 15 -10 15 -2 0
-4 -7 -4 -15z"/>
<path d="M5460 9796 c0 -8 5 -18 10 -21 6 -3 10 1 10 9 0 8 -4 18 -10 21 -5 3
-10 -1 -10 -9z"/>
<path d="M5095 9722 c-35 -25 -37 -107 -4 -117 31 -10 35 2 9 30 -18 19 -20
25 -8 25 9 0 18 12 21 28 6 29 -2 45 -18 34z"/>
<path d="M11282 9595 c-7 -8 -9 -15 -4 -15 5 0 15 7 22 15 16 19 -1 19 -18 0z"/>
<path d="M5060 9575 c7 -8 21 -15 32 -15 17 0 18 3 8 15 -7 8 -21 15 -32 15
-17 0 -18 -3 -8 -15z"/>
<path d="M5456 9555 c-17 -17 -22 -45 -8 -45 5 0 17 9 27 20 24 27 6 50 -19
25z"/>
<path d="M11661 9533 c0 -10 9 -65 19 -123 l18 -105 1 112 c1 103 -1 113 -19
123 -17 9 -20 8 -19 -7z"/>
<path d="M7471 9400 c0 -8 4 -22 9 -30 12 -18 12 -2 0 25 -6 13 -9 15 -9 5z"/>
<path d="M752 8835 c-1 -11 -5 -38 -8 -60 -4 -32 -3 -36 6 -22 6 9 9 36 7 60
-2 23 -4 33 -5 22z"/>
<path d="M5592 8794 c-12 -15 -21 -29 -18 -31 6 -7 54 29 60 45 9 22 -18 12
-42 -14z"/>
<path d="M5158 8666 c-10 -7 -18 -18 -18 -25 0 -6 -4 -11 -9 -11 -12 0 -18
-17 -27 -75 -9 -66 7 -52 51 41 19 41 35 77 35 79 0 9 -15 5 -32 -9z"/>
<path d="M7 8593 c-4 -3 -7 -515 -7 -1137 1 -1092 1 -1133 20 -1186 25 -70 26
-233 3 -340 -13 -58 -17 -142 -19 -377 l-3 -303 49 -6 c56 -7 75 -24 84 -75 9
-51 37 -83 86 -99 23 -7 65 -29 93 -47 29 -19 63 -36 77 -39 14 -3 45 -14 70
-24 84 -35 115 -39 272 -38 120 0 160 4 169 14 9 11 8 14 -5 14 -21 0 -21 16
1 28 14 9 14 12 -7 28 -13 11 -36 31 -52 46 -31 29 -35 28 -14 -5 8 -12 16
-33 18 -47 5 -42 -36 -39 -91 8 -26 22 -65 45 -86 51 -36 10 -105 65 -105 84
0 5 -13 27 -29 50 -16 23 -44 67 -63 97 -19 30 -46 73 -60 95 -32 50 -145 168
-151 158 -2 -4 -7 -25 -11 -45 -8 -44 -12 -48 -48 -41 -20 4 -30 14 -38 39
-15 46 -4 126 22 153 20 22 20 22 -2 58 -17 30 -19 41 -10 66 5 16 10 47 10
68 0 21 4 40 9 44 6 3 10 13 10 23 0 9 3 69 6 132 4 63 8 183 8 265 2 124 5
154 19 175 13 20 17 45 16 113 -1 48 -5 87 -10 87 -12 0 -1 79 19 148 14 45
14 59 3 95 -8 23 -17 46 -22 51 -4 6 -8 18 -8 27 0 9 -6 22 -14 29 -8 6 -12
18 -9 26 6 15 -8 73 -29 124 -19 45 -16 70 10 77 21 5 22 7 8 15 -21 12 -21
38 2 39 13 0 12 2 -5 9 -19 8 -22 14 -16 42 3 18 10 39 16 46 7 9 5 18 -8 32
-9 10 -14 23 -11 29 4 6 0 24 -9 42 -9 17 -15 43 -14 57 1 15 -1 44 -4 65 -4
20 -9 53 -13 72 -3 20 -9 33 -13 31 -4 -3 -5 15 -1 39 4 25 3 45 -1 45 -13 0
-20 36 -24 114 -2 41 -8 83 -14 94 -21 39 -13 116 16 158 33 49 33 113 -1 197
-25 62 -32 72 -49 72 -7 0 -13 9 -15 20 -2 11 -8 30 -15 43 -8 17 -8 28 0 41
11 18 3 47 -10 34z"/>
<path d="M11689 8318 c0 -7 -2 -31 -4 -53 -2 -22 -9 -92 -15 -155 -7 -63 -12
-311 -13 -550 -2 -422 -1 -437 20 -495 l21 -60 1 663 c1 364 -1 662 -4 662 -3
0 -5 -6 -6 -12z"/>
<path d="M7967 7866 c-9 -7 -17 -16 -17 -20 0 -11 27 -6 39 8 16 19 0 27 -22
12z"/>
<path d="M9371 7669 c24 -17 59 -46 77 -64 31 -32 32 -33 10 -38 l-22 -6 27
-29 c22 -23 27 -37 27 -79 0 -28 6 -66 14 -84 8 -19 19 -69 25 -110 8 -62 8
-88 -4 -134 -17 -63 -15 -74 8 -51 20 21 30 112 22 212 -6 69 -4 88 9 108 15
24 15 27 -5 61 -15 26 -20 45 -15 68 13 69 12 71 -14 73 -14 1 -59 25 -100 53
-81 54 -132 72 -59 20z"/>
<path d="M9772 7565 c-36 -44 -41 -61 -14 -46 29 16 54 49 50 67 -2 15 -10 10
-36 -21z"/>
<path d="M11031 7256 c-11 -13 -10 -17 3 -22 22 -8 30 1 19 21 -9 15 -11 15
-22 1z"/>
<path d="M4330 7018 c0 -18 12 -87 26 -153 63 -301 66 -326 61 -435 -5 -99 -4
-111 30 -220 136 -442 267 -761 436 -1057 19 -34 39 -72 42 -85 4 -13 25 -58
46 -101 51 -103 53 -127 13 -147 l-31 -16 43 -50 c28 -32 46 -46 52 -39 26 27
112 147 112 156 0 21 -42 92 -49 81 -18 -29 -53 26 -165 253 -48 99 -92 189
-97 200 -4 11 -31 71 -59 132 -27 62 -50 119 -50 126 0 7 -13 28 -29 46 -16
18 -35 47 -41 64 -7 18 -21 50 -31 72 -74 160 -105 274 -78 291 7 4 9 22 4 53
-13 85 -5 183 17 226 15 30 21 62 22 126 2 69 8 99 31 153 24 57 32 66 54 66
36 0 17 14 -64 45 -122 48 -179 92 -259 198 l-36 49 0 -34z"/>
<path d="M9556 6977 c3 -10 9 -15 12 -12 3 3 0 11 -7 18 -10 9 -11 8 -5 -6z"/>
<path d="M9533 6849 c-41 -29 -43 -33 -43 -80 0 -37 7 -60 25 -87 29 -43 34
-115 9 -150 -14 -21 -14 -22 6 -22 11 0 32 -11 46 -25 l25 -26 -7 83 c-5 68
-13 94 -40 144 -21 37 -34 75 -34 97 0 40 18 59 32 33 11 -19 50 -57 55 -53 5
5 -21 117 -27 117 -3 -1 -24 -14 -47 -31z"/>
<path d="M511 6658 c1 -134 6 -155 39 -172 80 -41 90 -44 96 -35 8 14 -5 68
-27 109 -11 19 -19 40 -19 46 0 6 -7 17 -15 24 -9 8 -13 21 -9 32 8 27 -13 74
-42 93 l-24 15 1 -112z"/>
<path d="M11522 6740 c-24 -38 -27 -50 -14 -50 18 0 43 39 40 62 -3 22 -5 21
-26 -12z"/>
<path d="M11545 6655 c-11 -8 -28 -15 -37 -15 -10 0 -18 -1 -18 -2 0 -2 -5
-81 -10 -177 -12 -211 -18 -226 -89 -218 -25 2 -54 8 -63 12 -36 15 -16 -13
31 -43 32 -21 61 -32 85 -32 25 0 38 -6 46 -20 15 -28 25 -25 49 16 17 29 24
34 36 24 10 -8 19 -8 34 -1 17 10 19 18 14 60 -4 39 -1 59 16 91 11 22 21 42
21 44 0 2 -19 6 -42 10 -42 7 -42 7 -18 19 21 11 25 20 24 52 0 22 -4 48 -8
57 -6 12 0 20 21 31 20 11 24 17 13 20 -8 3 -28 10 -45 15 -28 9 -33 18 -24
51 6 20 -14 23 -36 6z"/>
<path d="M3111 6584 c0 -11 3 -14 6 -6 3 7 2 16 -1 19 -3 4 -6 -2 -5 -13z"/>
<path d="M3121 6524 c0 -11 3 -14 6 -6 3 7 2 16 -1 19 -3 4 -6 -2 -5 -13z"/>
<path d="M3131 6474 c0 -11 3 -14 6 -6 3 7 2 16 -1 19 -3 4 -6 -2 -5 -13z"/>
<path d="M9601 6390 c-1 -26 19 -92 43 -145 27 -58 76 -220 86 -285 10 -58 33
-287 47 -460 2 -36 11 -72 19 -81 26 -29 56 -295 40 -346 -5 -17 0 -32 20 -58
21 -28 28 -52 34 -113 5 -42 13 -104 19 -137 5 -33 13 -98 16 -145 4 -47 15
-119 25 -160 10 -41 21 -92 24 -112 6 -45 -18 -213 -41 -286 -18 -58 -14 -95
52 -512 26 -163 59 -570 51 -623 -3 -18 -8 -68 -11 -112 -3 -44 -8 -92 -11
-107 -7 -37 3 -66 23 -64 10 0 19 -10 25 -29 9 -33 39 -216 41 -255 2 -22 7
-25 42 -28 35 -2 280 -75 402 -118 49 -18 154 -95 240 -176 71 -67 92 -70 109
-18 14 44 41 51 50 14 6 -22 8 -24 16 -10 8 14 30 124 44 221 3 17 12 72 21
123 9 51 14 94 11 97 -3 3 -68 1 -144 -5 -147 -11 -256 -7 -419 16 -129 19
-320 55 -333 63 -5 3 -12 39 -16 79 l-7 72 48 0 c26 0 109 -7 183 -15 81 -9
227 -14 365 -14 236 1 338 8 354 25 5 5 11 35 13 67 l5 58 -366 -3 c-375 -3
-446 3 -581 44 -66 20 -78 66 -33 125 30 40 44 40 181 9 69 -16 81 -15 250 4
97 11 251 23 342 27 140 5 171 3 204 -11 22 -9 40 -15 41 -14 13 19 37 164 39
238 2 52 6 158 10 235 9 164 -2 281 -24 278 -8 -1 -64 -15 -123 -32 -120 -33
-274 -51 -462 -53 -138 -1 -173 3 -186 23 -5 9 -11 11 -18 4 -12 -12 -103 -7
-96 5 3 4 -2 13 -10 20 -12 10 -13 16 -4 26 9 11 8 14 0 14 -7 0 -9 5 -5 11 3
6 9 7 13 3 3 -5 16 -17 28 -27 17 -15 26 -16 42 -8 16 9 19 19 17 54 -1 23 -9
61 -16 85 -10 31 -10 48 -2 65 13 26 22 137 11 137 -19 0 -49 70 -49 114 0 32
-5 48 -15 52 -17 7 -20 35 -5 50 7 7 7 18 0 35 -10 24 -10 23 -5 -3 4 -21 1
-28 -10 -28 -9 0 -15 9 -15 25 0 16 -6 25 -16 25 -13 0 -12 4 4 25 11 14 18
34 15 44 -4 17 13 46 44 75 7 6 26 23 42 38 25 23 35 26 73 21 53 -7 78 -19
78 -38 0 -15 17 -20 60 -16 33 3 34 4 15 41 -16 30 -15 32 3 37 27 7 17 51
-19 84 -26 25 -27 30 -18 64 6 21 8 46 6 56 -3 11 2 27 11 36 25 24 25 52 1
61 -11 5 -19 12 -18 17 1 6 -5 11 -14 13 -9 2 -17 -1 -17 -7 0 -6 -9 -11 -20
-11 -17 0 -20 7 -22 43 0 23 0 51 1 62 1 11 -3 29 -8 40 -5 11 -12 31 -15 45
-6 31 -55 85 -76 85 -11 0 -15 10 -14 37 1 28 -3 38 -19 42 -15 4 -18 10 -14
28 5 17 0 27 -16 38 -12 8 -25 13 -29 12 -5 -1 -8 7 -8 17 0 11 -9 23 -20 26
-11 3 -20 12 -20 18 -1 7 -19 26 -40 42 -44 34 -49 45 -20 45 23 0 25 9 8 45
-12 26 -27 34 -24 13 0 -7 -3 -14 -9 -15 -14 -4 -26 47 -19 80 6 27 4 28 -17
22 -13 -4 -28 -8 -34 -9 -5 0 -11 26 -13 59 -2 33 -6 62 -10 65 -26 19 -34 41
-22 55 10 13 10 19 -4 33 -18 20 -22 52 -6 52 5 0 14 9 20 21 13 24 -4 53 -27
45 -15 -6 -19 39 -3 49 16 10 -1 36 -21 30 -16 -5 -17 -2 -12 28 3 20 1 37 -6
41 -6 4 -11 28 -11 54 0 26 -7 58 -15 72 -20 36 -31 61 -38 91 -8 32 13 43
110 60 38 6 86 15 108 19 l40 8 -35 1 c-19 0 -98 -6 -175 -14 -235 -25 -306
-19 -325 27 -9 23 -9 23 -9 -2z m589 -1520 c0 -5 6 -10 14 -10 8 0 16 -7 20
-15 9 -23 -16 -17 -43 10 -18 20 -20 25 -7 25 9 0 16 -4 16 -10z m113 -833
c-3 -5 -10 -4 -15 1 -6 6 -7 16 -3 22 6 9 9 9 16 -1 4 -7 5 -17 2 -22z m-207
-256 c-9 -14 4 -41 20 -41 8 0 14 5 14 11 0 5 5 7 10 4 6 -3 10 2 10 13 0 15
5 18 25 14 26 -5 33 -18 13 -24 -7 -3 -9 -12 -5 -23 7 -17 8 -17 22 1 15 20
17 18 28 -33 5 -21 1 -23 -31 -22 -21 0 -62 6 -92 12 -52 11 -54 14 -53 42 1
52 3 55 24 55 11 0 18 -4 15 -9z m-56 -21 c0 -5 -4 -10 -10 -10 -5 0 -10 5
-10 10 0 6 5 10 10 10 6 0 10 -4 10 -10z m1011 -490 c26 -15 49 -62 49 -105 0
-19 -3 -35 -6 -35 -4 0 -22 10 -42 22 l-35 21 -171 -22 c-94 -12 -231 -28
-304 -36 -73 -8 -144 -18 -158 -21 -35 -9 -30 11 9 34 37 23 79 35 198 58 48
8 145 33 215 54 130 39 209 49 245 30z"/>
<path d="M540 6370 c0 -5 9 -33 21 -61 24 -64 92 -147 125 -155 13 -3 24 -10
24 -15 0 -5 11 -7 25 -3 18 4 27 1 31 -10 6 -17 34 -23 34 -7 0 12 -60 70
-142 136 -27 20 -48 43 -48 49 0 13 -53 76 -63 76 -4 0 -7 -4 -7 -10z"/>
<path d="M9314 6367 c41 -25 106 -90 106 -105 0 -20 15 -5 24 23 5 17 -2 25
-41 45 -64 32 -115 53 -89 37z"/>
<path d="M11040 6320 c0 -33 2 -60 5 -60 2 0 13 21 25 47 20 45 20 48 4 60
-30 22 -34 15 -34 -47z"/>
<path d="M3160 6361 c0 -14 27 -81 33 -81 5 0 -22 82 -29 89 -2 2 -4 -1 -4 -8z"/>
<path d="M2783 6263 c9 -2 23 -2 30 0 6 3 -1 5 -18 5 -16 0 -22 -2 -12 -5z"/>
<path d="M870 6101 c0 -5 6 -14 14 -20 12 -10 13 -8 9 8 -5 21 -23 30 -23 12z"/>
<path d="M11335 6085 c0 -14 5 -23 10 -22 6 2 10 12 10 22 0 10 -4 20 -10 22
-5 2 -10 -8 -10 -22z"/>
<path d="M3282 6025 c0 -16 2 -22 5 -12 2 9 2 23 0 30 -3 6 -5 -1 -5 -18z"/>
<path d="M815 6021 c-9 -16 3 -62 22 -83 12 -14 13 -23 5 -48 -8 -20 -8 -39
-2 -56 6 -14 17 -58 26 -97 16 -68 68 -178 150 -314 18 -31 34 -66 34 -76 0
-16 3 -17 15 -7 20 17 27 12 69 -43 44 -57 121 -247 208 -510 34 -101 42 -217
21 -312 -6 -27 -19 -88 -28 -135 -9 -47 -22 -116 -30 -155 -8 -38 -24 -122
-35 -185 -28 -155 -39 -202 -53 -218 -8 -10 -11 -50 -8 -122 2 -68 -1 -116 -9
-129 -9 -17 -8 -31 1 -59 8 -22 13 -90 14 -167 0 -135 27 -340 50 -385 7 -14
15 -37 19 -52 7 -32 49 -45 98 -30 18 6 76 13 128 16 104 6 172 25 239 67 74
47 170 62 358 57 106 -3 163 -2 163 5 0 11 100 6 315 -18 77 -8 203 -20 280
-25 77 -5 153 -13 169 -16 26 -6 28 -4 23 14 -2 12 1 38 8 59 22 62 12 66
-177 69 -143 2 -185 7 -338 39 -96 20 -206 40 -245 43 l-69 7 -13 65 c-19 90
-14 144 12 148 12 2 66 -15 120 -37 55 -22 158 -58 228 -81 112 -35 148 -42
279 -51 83 -6 161 -15 175 -20 33 -12 33 -12 33 11 0 11 -3 19 -7 19 -22 -4
-24 3 -8 21 9 10 23 43 30 72 40 161 59 221 95 293 38 78 46 115 40 200 -2 34
-3 36 -9 15 -15 -55 -71 -39 -391 113 -123 58 -238 105 -373 152 -96 34 -110
41 -121 69 -7 17 -12 46 -10 64 3 17 0 32 -5 32 -13 0 11 44 43 80 16 18 26
42 26 60 0 23 4 30 19 30 21 0 34 14 38 43 2 10 -3 17 -12 17 -8 0 -15 5 -15
10 0 15 19 12 37 -6 9 -8 22 -13 30 -10 9 4 13 1 11 -6 -3 -7 6 -24 19 -38 13
-14 23 -29 23 -35 0 -12 94 -103 132 -127 33 -22 83 -8 92 25 10 37 7 102 -5
114 -12 12 -14 21 -24 98 -4 22 -10 44 -16 50 -5 5 -9 16 -9 25 0 9 -9 25 -20
35 -21 19 -27 55 -9 55 6 0 1 12 -10 26 -12 15 -21 34 -21 44 0 9 -27 69 -60
133 -33 65 -60 123 -60 130 0 7 -6 19 -12 25 -7 7 -22 43 -33 79 -25 83 -45
94 -45 25 0 -149 -37 -356 -94 -523 -15 -44 -32 -133 -42 -210 -9 -74 -27
-186 -40 -249 -13 -63 -29 -169 -35 -235 -15 -161 -15 -164 -47 -176 -28 -11
-638 -5 -770 7 -56 6 -65 9 -74 33 -25 59 -2 317 33 383 6 11 12 28 14 38 2
10 17 49 34 87 27 61 33 68 58 67 15 0 31 3 34 8 3 5 19 10 35 12 16 2 32 4
36 5 4 0 16 14 27 30 23 31 19 50 -19 110 -29 47 -44 126 -46 251 -4 197 -33
404 -61 427 -9 7 -12 19 -8 33 4 12 1 30 -8 44 -9 13 -19 41 -23 62 -3 21 -12
46 -19 54 -21 24 -45 90 -45 122 0 23 -4 29 -15 24 -23 -8 -18 22 5 34 11 6
55 15 98 20 42 5 123 18 179 29 55 12 127 21 158 21 35 0 54 4 50 10 -3 6 -30
10 -60 10 -163 0 -409 42 -569 96 -56 19 -117 40 -136 46 -19 5 -50 21 -69 34
-20 13 -47 24 -61 24 -40 1 -85 48 -100 105 -17 66 -25 81 -35 66z m1575
-1561 c0 -5 -5 -10 -11 -10 -5 0 -7 5 -4 10 3 6 8 10 11 10 2 0 4 -4 4 -10z"/>
<path d="M9388 5950 c-6 -48 -4 -57 14 -72 11 -10 27 -18 36 -18 12 0 10 6 -8
25 -15 16 -26 43 -30 73 l-6 47 -6 -55z"/>
<path d="M3290 5966 c0 -14 4 -27 8 -30 5 -3 6 8 4 25 -5 35 -12 38 -12 5z"/>
<path d="M3311 5884 c0 -11 3 -14 6 -6 3 7 2 16 -1 19 -3 4 -6 -2 -5 -13z"/>
<path d="M10020 5844 c0 -8 5 -12 10 -9 6 4 8 11 5 16 -9 14 -15 11 -15 -7z"/>
<path d="M9532 5823 c22 -26 27 -45 49 -178 12 -66 26 -125 32 -131 7 -6 26
-14 42 -18 l30 -6 -28 23 c-19 16 -30 38 -37 73 -21 119 -48 215 -65 234 -22
25 -44 27 -23 3z"/>
<path d="M3250 5811 c0 -5 6 -11 13 -14 9 -3 9 -9 -1 -26 -7 -12 -8 -21 -2
-21 5 0 10 -7 10 -15 0 -10 10 -15 30 -15 19 0 30 5 30 14 0 19 -20 31 -42 28
-13 -3 -16 1 -11 15 3 10 10 24 16 31 7 9 3 12 -17 12 -14 0 -26 -4 -26 -9z"/>
<path d="M3331 5804 c0 -11 3 -14 6 -6 3 7 2 16 -1 19 -3 4 -6 -2 -5 -13z"/>
<path d="M8683 5787 c-27 -39 -30 -67 -8 -67 23 0 67 24 89 49 19 21 19 21 -1
21 -11 0 -26 7 -33 15 -17 21 -22 19 -47 -18z"/>
<path d="M10989 5624 c-1 -183 0 -206 13 -219 6 -7 8 51 5 173 -3 101 -8 186
-11 189 -3 4 -6 -61 -7 -143z"/>
<path d="M599 5728 c0 -12 -2 -49 -3 -80 -3 -63 5 -70 41 -36 16 15 27 18 33
12 13 -13 3 -44 -14 -44 -6 0 0 -6 13 -13 26 -13 110 -158 111 -189 0 -11 8
-18 19 -18 11 0 23 -4 26 -10 3 -5 11 -10 17 -10 6 0 2 10 -9 23 -11 12 -24
33 -28 47 -4 14 -18 41 -30 60 -12 19 -25 53 -29 75 -13 70 -41 119 -94 164
-49 41 -52 42 -53 19z"/>
<path d="M2240 5702 c0 -5 6 -15 13 -24 9 -13 36 -17 123 -20 116 -3 144 -13
144 -49 0 -11 15 -36 34 -57 19 -21 45 -62 58 -92 17 -37 44 -73 84 -109 32
-30 66 -65 74 -79 12 -19 37 -33 95 -51 73 -24 82 -29 98 -63 10 -21 24 -38
29 -38 6 0 39 -26 74 -57 34 -32 75 -68 92 -80 17 -13 34 -38 40 -60 23 -81
44 -128 69 -149 l26 -23 -17 -65 c-10 -35 -15 -75 -12 -88 3 -13 3 -17 0 -10
-8 17 -25 15 -18 -3 4 -9 0 -15 -10 -15 -9 0 -16 -4 -16 -10 0 -5 7 -10 14
-10 8 0 27 -11 42 -25 15 -14 33 -25 40 -25 22 0 26 -41 10 -110 -9 -36 -16
-77 -16 -92 0 -28 13 -37 25 -17 4 6 13 8 20 5 8 -3 18 8 26 27 7 18 20 41 29
52 9 11 40 63 69 115 30 52 78 136 107 185 29 50 58 110 63 135 16 69 13 263
-4 329 -8 31 -63 151 -121 266 -58 116 -114 225 -123 243 -12 25 -21 31 -38
27 -102 -24 -356 -31 -533 -15 -58 6 -161 13 -230 16 -69 3 -171 14 -228 25
-115 21 -132 23 -132 11z"/>
<path d="M10067 5673 c-10 -10 -8 -53 2 -53 14 0 25 40 14 51 -5 5 -12 6 -16
2z"/>
<path d="M598 5549 c-10 -5 -18 -14 -18 -19 0 -17 25 -11 38 10 13 22 7 25
-20 9z"/>
<path d="M9701 5462 c12 -34 24 -48 32 -35 3 5 -6 22 -19 38 l-24 30 11 -33z"/>
<path d="M9330 5475 c0 -2 27 -48 60 -102 l60 -98 49 -6 c27 -4 75 -15 105
-24 31 -10 59 -15 62 -12 3 3 2 21 -1 41 -6 31 -11 36 -35 36 -49 0 -83 19
-138 77 -32 33 -58 53 -67 50 -7 -3 -30 5 -50 19 -36 24 -45 28 -45 19z"/>
<path d="M632 5329 c6 -16 12 -28 15 -26 7 7 -8 57 -18 57 -4 0 -3 -14 3 -31z"/>
<path d="M2350 5350 c0 -5 5 -10 11 -10 5 0 7 5 4 10 -3 6 -8 10 -11 10 -2 0
-4 -4 -4 -10z"/>
<path d="M2392 5270 c14 -22 24 -19 15 5 -4 8 -11 15 -17 15 -6 0 -6 -7 2 -20z"/>
<path d="M10860 5035 c0 -14 5 -25 10 -25 6 0 10 11 10 25 0 14 -4 25 -10 25
-5 0 -10 -11 -10 -25z"/>
<path d="M9735 5019 c-9 -13 18 -43 33 -38 6 2 2 14 -8 27 -12 15 -21 19 -25
11z"/>
<path d="M5498 4937 c-57 -22 -185 -113 -174 -124 3 -3 34 12 68 35 77 49 98
56 140 44 l33 -9 0 38 c0 22 -2 39 -5 38 -3 0 -31 -10 -62 -22z"/>
<path d="M9786 4868 c-9 -12 -16 -36 -16 -53 l1 -30 24 28 c24 28 34 77 16 77
-6 0 -17 -10 -25 -22z"/>
<path d="M5695 4712 c6 -6 37 -25 70 -42 33 -18 79 -46 102 -62 l43 -29 11 28
c6 15 19 37 30 49 l19 21 -72 18 c-88 21 -218 32 -203 17z"/>
<path d="M10550 4665 c0 -8 5 -15 10 -15 6 0 10 7 10 15 0 8 -4 15 -10 15 -5
0 -10 -7 -10 -15z"/>
<path d="M5041 4627 c-13 -21 -12 -21 5 -5 10 10 16 20 13 22 -3 3 -11 -5 -18
-17z"/>
<path d="M10600 4571 c0 -5 5 -13 10 -16 6 -3 10 -2 10 4 0 5 -4 13 -10 16 -5
3 -10 2 -10 -4z"/>
<path d="M2297 4553 c-4 -3 -7 -11 -7 -17 0 -6 5 -5 12 2 6 6 9 14 7 17 -3 3
-9 2 -12 -2z"/>
<path d="M10597 4489 c11 -12 26 -18 32 -14 17 10 -6 35 -32 35 l-21 0 21 -21z"/>
<path d="M5466 4471 c-3 -5 15 -16 41 -26 63 -24 114 -73 143 -137 13 -29 25
-55 26 -56 2 -2 28 5 59 17 31 12 74 21 95 21 22 0 40 4 40 9 0 10 -92 94
-159 144 -47 36 -53 37 -88 28 -48 -14 -109 -14 -133 -1 -10 6 -21 6 -24 1z"/>
<path d="M5880 4433 c17 -26 30 -51 30 -56 0 -5 9 -22 20 -37 l21 -29 35 21
35 20 -23 16 c-13 9 -48 37 -77 64 -30 26 -58 48 -63 48 -4 0 6 -21 22 -47z"/>
<path d="M2251 4429 c-14 -39 -14 -57 -2 -43 10 10 25 74 18 74 -3 0 -10 -14
-16 -31z"/>
<path d="M10485 4450 c3 -5 8 -10 11 -10 2 0 4 5 4 10 0 6 -5 10 -11 10 -5 0
-7 -4 -4 -10z"/>
<path d="M10545 4440 c-7 -12 27 -22 37 -12 6 6 1 12 -11 15 -12 3 -23 2 -26
-3z"/>
<path d="M4821 4270 c-33 -66 -57 -120 -53 -120 4 0 25 37 47 83 22 45 43 84
48 85 4 2 7 9 7 17 0 7 7 18 15 25 17 14 20 30 6 30 -6 0 -37 -54 -70 -120z"/>
<path d="M5325 4380 c-3 -5 -2 -10 4 -10 5 0 13 5 16 10 3 6 2 10 -4 10 -5 0
-13 -4 -16 -10z"/>
<path d="M3335 4249 c-4 -6 -5 -12 -2 -15 2 -3 7 2 10 11 7 17 1 20 -8 4z"/>
<path d="M5200 4246 c0 -7 9 -25 20 -39 11 -14 20 -28 20 -32 0 -3 -23 -31
-51 -61 -41 -42 -55 -52 -65 -43 -20 16 -17 -2 4 -28 12 -16 38 -27 87 -37 39
-8 77 -17 85 -20 10 -4 22 9 38 42 30 61 72 106 125 135 l42 22 -33 3 c-19 2
-51 -3 -72 -12 -32 -13 -40 -13 -50 -2 -6 8 -35 25 -64 39 -30 14 -57 31 -61
36 -9 15 -25 14 -25 -3z"/>
<path d="M5885 4170 c-11 -5 -33 -11 -48 -15 -16 -3 -31 -15 -36 -29 -10 -24
-65 -75 -84 -77 -7 -1 -24 0 -40 1 -25 1 -116 -46 -117 -61 0 -9 101 -18 133
-12 17 3 27 12 27 22 0 20 57 76 121 119 25 17 51 37 58 46 15 18 14 18 -14 6z"/>
<path d="M4930 4020 c0 -5 3 -10 8 -10 4 0 39 -30 77 -66 39 -37 95 -85 126
-108 58 -42 143 -139 132 -150 -4 -3 -27 -6 -53 -6 -39 0 -51 5 -76 31 -16 17
-42 38 -59 46 -32 17 -94 66 -152 123 -20 19 -41 34 -45 32 -14 -4 -98 49 -98
61 0 7 -7 -1 -15 -17 -8 -15 -15 -35 -15 -43 0 -8 -9 -17 -20 -20 -28 -7 -25
-25 11 -59 51 -48 53 -60 22 -99 -19 -23 -40 -37 -63 -41 -25 -5 -52 -24 -96
-70 -105 -108 -148 -221 -68 -180 34 17 126 46 148 46 25 0 27 -16 5 -65 -17
-38 -19 -52 -10 -71 14 -31 20 -30 66 6 65 52 105 34 121 -55 13 -75 20 -65
37 57 10 67 23 128 29 135 6 8 32 13 62 13 38 0 75 10 141 40 80 34 102 40
185 44 52 2 107 10 122 17 24 10 34 9 68 -6 36 -16 42 -16 63 -2 12 8 31 32
41 53 9 22 36 52 59 69 l42 30 -71 6 c-39 4 -93 16 -119 28 -37 16 -74 22
-154 25 l-106 4 -69 46 c-87 59 -119 83 -162 122 -22 20 -42 30 -53 27 -11 -3
-28 0 -40 6 -14 8 -21 8 -21 1z m-70 -365 c49 -25 58 -61 20 -78 -8 -4 -23
-12 -32 -19 -14 -10 -22 -9 -45 8 -38 28 -40 57 -7 83 32 25 28 25 64 6z"/>
<path d="M4521 3664 c0 -11 3 -14 6 -6 3 7 2 16 -1 19 -3 4 -6 -2 -5 -13z"/>
<path d="M1342 2785 c0 -16 2 -22 5 -12 2 9 2 23 0 30 -3 6 -5 -1 -5 -18z"/>
<path d="M2135 2770 c-88 -5 -190 -15 -227 -24 -152 -36 -209 -46 -340 -63
-115 -14 -145 -15 -184 -5 -26 7 -48 11 -50 9 -2 -2 5 -39 15 -83 11 -43 27
-131 36 -195 9 -64 27 -156 40 -205 99 -360 161 -628 178 -778 9 -87 9 -107
-8 -170 -10 -41 -33 -94 -54 -125 -20 -29 -48 -71 -63 -93 -30 -44 -68 -175
-68 -234 0 -55 28 -183 45 -208 8 -11 15 -34 15 -51 0 -46 11 -77 25 -71 7 2
22 -2 34 -11 17 -12 25 -12 37 -2 11 9 18 8 34 -6 18 -17 20 -17 26 -1 5 14
14 16 40 12 19 -4 35 -2 39 4 5 8 12 7 24 -4 12 -11 32 -14 80 -10 35 2 67 7
72 9 4 3 15 -2 24 -11 15 -15 17 -15 28 -1 13 17 94 18 129 3 10 -5 32 -9 50
-10 l33 -1 -2 70 c-2 65 -1 68 12 45 8 -14 17 -44 21 -68 7 -48 18 -60 32 -35
9 14 14 15 34 6 40 -20 115 -24 122 -8 3 8 12 15 20 15 9 0 19 12 22 26 l7 27
16 -22 c12 -15 26 -21 48 -19 20 1 40 -5 52 -16 14 -13 25 -16 33 -9 12 8 68
10 93 2 6 -1 38 -3 72 -3 56 -1 63 1 63 19 0 18 1 18 16 -4 11 -15 23 -21 35
-18 11 3 22 1 25 -5 8 -13 70 -1 101 19 24 16 22 17 85 -15 4 -2 -4 27 -18 65
-28 77 -28 108 -1 108 23 0 43 -52 45 -115 2 -53 16 -70 38 -48 13 12 24 14
56 6 47 -10 78 -3 78 18 0 16 65 48 79 40 9 -6 21 50 21 100 0 26 -14 44 -95
119 -52 48 -95 93 -95 99 0 6 -28 38 -61 71 -34 33 -74 78 -90 100 -16 22 -66
72 -112 111 -67 58 -82 76 -83 100 -1 76 -49 164 -88 164 -20 0 -67 -20 -89
-39 -21 -18 -36 -6 -19 17 21 29 29 53 52 157 12 55 33 136 46 180 103 353
117 417 102 449 -9 21 -7 30 8 52 10 15 22 32 26 38 8 13 41 128 64 216 9 36
20 70 24 75 4 6 15 37 24 70 8 33 18 69 21 80 6 19 -2 22 -127 38 -357 48
-505 57 -723 47z m-63 -342 c25 -29 53 -65 62 -80 20 -30 15 -58 -9 -58 -8 0
-15 -4 -15 -10 0 -5 4 -10 9 -10 6 0 13 5 16 10 10 16 52 12 59 -6 17 -46 -8
-65 -93 -69 -31 -2 -64 -7 -74 -10 -10 -4 -33 -5 -52 -2 -19 3 -37 1 -41 -5
-5 -8 -158 -7 -202 1 -2 1 -2 13 0 29 3 26 5 27 65 27 33 0 64 3 69 8 4 4 -4
7 -17 7 -68 1 -95 39 -44 62 14 6 25 15 25 19 0 8 59 56 142 117 17 12 36 22
43 22 7 0 33 -24 57 -52z m309 -1110 c1 -7 1 -17 0 -22 -1 -5 6 -17 15 -27 14
-15 15 -22 5 -32 -9 -9 -25 -7 -74 11 -59 21 -65 21 -113 7 -65 -19 -150 -74
-242 -158 -75 -68 -116 -87 -266 -123 -48 -12 -61 -12 -68 -2 -11 19 -10 42 4
56 9 9 8 12 -5 12 -21 0 -33 23 -40 81 l-6 46 77 36 c164 76 391 125 580 126
99 1 132 -2 133 -11z m279 -229 c0 -10 -7 -19 -15 -19 -15 0 -21 31 -9 43 11
10 24 -3 24 -24z m156 -40 l29 -32 -27 17 c-32 21 -48 14 -48 -19 0 -14 -11
-32 -27 -45 -27 -20 -27 -21 -3 -9 14 6 34 20 45 30 50 45 115 20 270 -103
102 -82 118 -98 92 -98 -8 0 -20 -7 -27 -15 -16 -20 0 -19 29 1 17 12 25 14
34 5 9 -9 6 -17 -13 -31 -32 -24 -20 -37 15 -14 17 11 29 14 36 7 6 -6 -10
-28 -46 -63 -43 -40 -59 -50 -68 -41 -9 9 -8 16 1 31 7 11 8 20 3 20 -6 0 -13
-4 -16 -10 -3 -5 -18 -10 -32 -10 -18 0 -24 4 -20 15 10 25 -54 6 -89 -27 -44
-41 -86 -36 -127 14 -24 30 -28 40 -18 52 10 12 9 13 -10 9 -19 -5 -21 -3 -17
20 4 18 1 27 -8 27 -7 0 -19 13 -27 29 -14 28 -13 30 17 62 26 27 27 30 6 16
-56 -38 -79 -33 -40 8 26 28 16 33 -17 10 -24 -17 -39 -5 -28 23 5 14 4 15 -6
5 -16 -16 -49 -17 -49 -1 0 6 -3 8 -7 5 -3 -4 4 -18 17 -32 13 -14 19 -25 13
-25 -11 0 -58 48 -52 54 2 2 23 13 47 25 24 12 42 29 42 38 0 20 28 53 45 53
7 0 18 7 25 15 17 21 22 19 56 -16z m-981 -78 c7 -13 -57 -131 -71 -131 -6 0
-17 7 -24 15 -7 8 -21 15 -32 15 -10 0 -21 6 -24 14 -3 8 -14 16 -25 19 -39
10 -20 34 39 47 31 8 65 15 75 16 10 1 20 4 24 8 9 9 31 7 38 -3z m865 -202
c0 -5 9 -18 20 -29 11 -11 20 -29 20 -40 0 -11 5 -20 10 -20 6 0 10 -7 10 -15
0 -19 -9 -19 -35 1 -20 15 -25 24 -75 118 -24 47 -24 48 -6 62 18 13 21 10 38
-27 10 -23 18 -45 18 -50z m575 -63 c18 -13 18 -14 -3 -25 -12 -6 -22 -19 -22
-29 -1 -9 -16 -27 -35 -39 -29 -18 -36 -19 -52 -7 -17 12 -15 17 32 63 28 28
53 50 56 51 3 0 14 -6 24 -14z m61 -94 c-12 -11 -18 7 -10 30 l8 23 4 -23 c2
-13 1 -26 -2 -30z"/>
<path d="M2030 2270 c0 -13 20 -13 40 0 12 8 9 10 -12 10 -16 0 -28 -4 -28
-10z"/>
<path d="M1940 2254 c0 -11 5 -14 16 -10 9 3 20 6 25 6 5 0 9 5 9 10 0 6 -11
10 -25 10 -16 0 -25 -6 -25 -16z"/>
<path d="M1850 2210 c0 -5 5 -10 10 -10 6 0 10 5 10 10 0 6 -4 10 -10 10 -5 0
-10 -4 -10 -10z"/>
<path d="M2850 950 c-9 -6 -10 -10 -3 -10 6 0 15 5 18 10 8 12 4 12 -15 0z"/>
<path d="M2889 913 l-24 -26 33 23 c33 25 38 30 24 30 -5 0 -19 -12 -33 -27z"/>
<path d="M2960 905 c-11 -13 -10 -14 4 -9 9 3 16 10 16 15 0 13 -6 11 -20 -6z"/>
<path d="M3036 841 c-4 -5 3 -7 14 -4 23 6 26 13 6 13 -8 0 -17 -4 -20 -9z"/>
<path d="M2778 833 c6 -2 18 -2 25 0 6 3 1 5 -13 5 -14 0 -19 -2 -12 -5z"/>
<path d="M3076 805 c-11 -8 -18 -17 -15 -19 2 -3 15 4 29 14 14 11 21 20 15
19 -5 0 -19 -6 -29 -14z"/>
<path d="M2830 759 c0 -5 5 -7 10 -4 6 3 10 8 10 11 0 2 -4 4 -10 4 -5 0 -10
-5 -10 -11z"/>
<path d="M2925 740 c-15 -17 -16 -20 -3 -20 9 0 18 9 21 20 3 11 4 20 3 20 -2
0 -11 -9 -21 -20z"/>
<path d="M9860 2281 c0 -12 56 -25 70 -16 6 3 8 11 5 16 -8 12 -75 12 -75 0z"/>
<path d="M9966 2269 c13 -15 29 -18 78 -17 45 2 68 -3 90 -17 l29 -19 -12 22
c-21 39 -51 51 -129 50 -70 0 -72 -1 -56 -19z"/>
<path d="M9080 1503 c0 -20 22 -64 77 -154 29 -47 57 -97 62 -111 5 -13 37
-59 70 -100 91 -113 144 -128 257 -74 27 13 73 34 102 46 28 12 52 27 52 33 0
6 -19 31 -42 54 -23 24 -37 43 -30 43 7 0 22 -11 34 -25 20 -23 48 -34 48 -18
0 11 -164 173 -176 173 -6 0 -23 9 -37 20 -22 17 -25 18 -23 3 3 -40 -35 -23
-100 46 -67 71 -101 93 -70 46 10 -15 12 -25 5 -25 -6 0 1 -21 15 -46 14 -26
26 -49 26 -51 0 -3 -12 -2 -27 1 -17 5 -29 3 -35 -6 -6 -10 -18 -2 -46 30 -34
40 -39 42 -65 33 -25 -10 -29 -8 -62 42 -19 28 -35 46 -35 40z m108 -115 c7
-7 12 -19 12 -27 0 -8 10 -25 22 -38 13 -14 16 -22 8 -18 -17 6 -74 95 -62 95
5 0 13 -5 20 -12z"/>
<path d="M11060 1303 c0 -5 5 -15 10 -23 8 -12 10 -11 10 8 0 12 -4 22 -10 22
-5 0 -10 -3 -10 -7z"/>
<path d="M10980 1208 c11 -29 20 -54 20 -56 0 -1 11 -7 25 -12 14 -5 25 -17
26 -27 1 -39 18 26 23 89 3 35 3 53 0 41 -6 -28 -11 -28 -37 -5 -19 17 -20 16
-13 -20 9 -48 1 -48 -21 -1 -29 60 -47 54 -23 -9z"/>
<path d="M10992 971 c-7 -19 -21 -40 -31 -47 -11 -8 -37 -47 -59 -87 -22 -40
-48 -79 -56 -86 -9 -8 -16 -23 -16 -35 0 -13 -25 -46 -67 -87 -96 -92 -111
-103 -141 -105 -48 -3 -52 -4 -52 -14 0 -5 6 -10 14 -10 7 0 27 -7 42 -15 82
-43 142 -6 282 173 54 70 114 246 103 307 l-7 40 -12 -34z"/>
<path d="M10050 595 c0 -7 109 -75 122 -75 21 0 -26 41 -70 60 -48 21 -52 23
-52 15z"/>
</g>
</svg>
